<?xml version="1.0" encoding="UTF-8"?>
<svg width="27px" height="19px" viewBox="0 0 27 19" version="1.1" xmlns="http://www.w3.org/2000/svg" xmlns:xlink="http://www.w3.org/1999/xlink">
    <!-- Generator: Sketch 58 (84663) - https://sketch.com -->
    <title>icon/重置·默认</title>
    <desc>Created with Sketch.</desc>
    <g id="组件" stroke="none" stroke-width="1" fill="none" fill-rule="evenodd">
        <g id="icon/重置·默认">
            <g transform="translate(1.000000, 0.000000)">
                <g id="icon/刷新备份" opacity="0.5">
                    <g id="icon/确定·默认备份-2"></g>
                </g>
                <g id="刷子" transform="translate(4.000000, 2.000000)" fill-rule="nonzero">
                    <polygon id="矩形" fill="" opacity="0" points="0 0 16 0 16 16 0 16 0 5.10733073"></polygon>
                    <path d="M5.6984375,6.8921875 C5.74375,7.021875 5.9328125,7.590625 6.1203125,8.54375 C6.3171875,9.5453125 6.5515625,11.1890625 6.5515625,13.328125 C6.5515625,13.7734375 6.7234375,14.1734375 7.0375,14.4546875 C7.3140625,14.703125 7.6890625,14.8453125 8.06875,14.8453125 C8.446875,14.8453125 8.7984375,14.7078125 9.0578125,14.4578125 C9.2609375,14.265625 9.5,13.9109375 9.5,13.328125 C9.5,10.95 9.7171875,9.325 9.9,8.38125 C10.0796875,7.453125 10.2609375,6.984375 10.29375,6.903125 L12.159375,3.4984375 C12.253125,3.328125 12.234375,3.11875 12.1140625,2.9671875 C11.678125,2.4171875 11.0734375,1.959375 10.3640625,1.64375 C9.646875,1.3234375 8.828125,1.1546875 8,1.1546875 C7.171875,1.1546875 6.353125,1.3234375 5.6328125,1.6453125 C4.9234375,1.9609375 4.31875,2.41875 3.8828125,2.96875 C3.7625,3.1203125 3.7453125,3.3296875 3.8375,3.5 L5.6984375,6.8921875 Z M8.5359375,13.328125 C8.5359375,13.4625 8.5109375,13.6484375 8.390625,13.7640625 C8.3125,13.8390625 8.1984375,13.88125 8.0703125,13.88125 C7.8796875,13.88125 7.5171875,13.765625 7.5171875,13.328125 C7.5171875,10.2765625 7.0671875,8.171875 6.79375,7.178125 L9.190625,7.178125 C8.9296875,8.1125 8.5359375,10.0609375 8.5359375,13.328125 L8.5359375,13.328125 Z M8,2.11875 C9.240625,2.11875 10.4171875,2.5765625 11.153125,3.33125 L9.5734375,6.2125 L8.71875,6.2125 L8.9921875,5.25625 C9.040625,5.0859375 8.9421875,4.9078125 8.771875,4.859375 C8.6015625,4.8109375 8.4234375,4.909375 8.375,5.0796875 L8.0515625,6.2125 L7.9515625,6.2125 L7.628125,5.0796875 C7.5796875,4.909375 7.4015625,4.809375 7.23125,4.859375 C7.0609375,4.9078125 6.9609375,5.0859375 7.0109375,5.25625 L7.284375,6.2125 L6.4296875,6.2125 L4.846875,3.33125 C5.5828125,2.5765625 6.759375,2.11875 8,2.11875 Z" id="形状" fill="#2C77E5"></path>
                </g>
            </g>
            <rect id="矩形备份-4" stroke="#2C77E5" opacity="0.5" x="2" y="1" width="23" height="17.48" rx="2"></rect>
        </g>
    </g>
</svg>
