<?xml version="1.0" encoding="UTF-8"?>
<svg width="27px" height="19px" viewBox="0 0 27 19" version="1.1" xmlns="http://www.w3.org/2000/svg" xmlns:xlink="http://www.w3.org/1999/xlink">
    <!-- Generator: Sketch 58 (84663) - https://sketch.com -->
    <title>icon/刷新·交互</title>
    <desc>Created with Sketch.</desc>
    <g id="组件" stroke="none" stroke-width="1" fill="none" fill-rule="evenodd">
        <g id="icon/刷新·交互">
            <g transform="translate(2.000000, 1.000000)">
                <g id="icon/确定·默认备份-2" opacity="0.5" stroke="#2C77E5">
                    <g id="icon/确定·默认">
                        <rect id="矩形备份-4" x="0" y="0" width="23" height="17.48" rx="2"></rect>
                    </g>
                </g>
                <g id="刷新" transform="translate(5.000000, 2.000000)" fill-rule="nonzero">
                    <rect id="矩形" fill="#000000" opacity="0" x="0" y="0" width="12.6388889" height="12.6388889"></rect>
                    <g>
                        <rect id="矩形" fill="#000000" opacity="0" x="0" y="0" width="11.5555556" height="11.5555556"></rect>
                        <path d="M9.20164609,6.41975309 C9.20164608,8.31070334 7.66872802,9.84362139 5.77777777,9.84362138 C3.88682752,9.84362138 2.35390947,8.31070332 2.35390947,6.41975307 C2.35390947,4.52880282 3.88682753,2.99588477 5.77777778,2.99588477 L5.77777778,4.27983539 L8.62814815,2.1399177 L5.77777778,0 L5.77777778,1.28395062 C2.9413524,1.28395062 0.64197531,3.58332771 0.64197531,6.41975309 C0.64197531,9.25617847 2.9413524,11.5555556 5.77777778,11.5555556 C8.61420316,11.5555556 10.9135802,9.25617847 10.9135802,6.41975309 L9.20164609,6.41975309 Z" id="路径" fill="#5299F8"></path>
                        <path d="M4.06584362,6.63374486 C4.06584362,7.57921999 4.83230265,8.34567902 5.77777778,8.34567902 C6.72325291,8.34567902 7.48971194,7.57921999 7.48971194,6.63374486 C7.48971194,5.68826973 6.72325291,4.9218107 5.77777778,4.9218107 C4.83230265,4.9218107 4.06584362,5.68826973 4.06584362,6.63374486 Z" id="路径" fill="#5299F8"></path>
                    </g>
                </g>
            </g>
        </g>
    </g>
</svg>