<?xml version="1.0" encoding="UTF-8"?>
<svg width="24px" height="24px" viewBox="0 0 24 24" version="1.1" xmlns="http://www.w3.org/2000/svg"
     xmlns:xlink="http://www.w3.org/1999/xlink">
  <!-- Generator: Sketch 58 (84663) - https://sketch.com -->
  <title>icon/报表定义</title>
  <desc>Created with Sketch.</desc>
  <g id="组件" stroke="none" stroke-width="1" fill="none" fill-rule="evenodd">
    <g id="icon/菜单栏图标" transform="translate(0.000000, -300.000000)">
      <g id="icon/报表定义" transform="translate(0.000000, 300.000000)">
        <g id="报表2" transform="translate(2.000000, 2.000000)" fill="#FFFFFF" fill-rule="nonzero">
          <rect id="矩形" opacity="0" x="0" y="0" width="20" height="20"></rect>
          <path
            d="M7.31113281,6.85019531 L3.87363281,6.85019531 C3.83048557,6.85019531 3.79550781,6.88517307 3.79550781,6.92832031 L3.79550781,16.1404297 C3.79550781,16.1835769 3.83048557,16.2185547 3.87363281,16.2185547 L7.31113281,16.2185547 C7.35428006,16.2185547 7.38925781,16.1835769 7.38925781,16.1404297 L7.38925781,6.92832031 C7.38925781,6.88517307 7.35428006,6.85019531 7.31113281,6.85019531 Z M6.06113281,14.9685547 L5.12363281,14.9685547 C5.08048557,14.9685547 5.04550781,14.9335769 5.04550781,14.8904297 L5.04550781,8.17832031 C5.04550781,8.13517307 5.08048557,8.10019531 5.12363281,8.10019531 L6.06113281,8.10019531 C6.10428006,8.10019531 6.13925781,8.13517307 6.13925781,8.17832031 L6.13925781,14.8904297 C6.13925781,14.9335769 6.10428006,14.9685547 6.06113281,14.9685547 Z M12.1623047,3.08964844 L8.72480469,3.08964844 C8.68165744,3.08964844 8.64667969,3.12462619 8.64667969,3.16777344 L8.64667969,16.1351563 C8.64667969,16.1783035 8.68165744,16.2132813 8.72480469,16.2132813 L12.1623047,16.2132813 C12.2054519,16.2132813 12.2404297,16.1783035 12.2404297,16.1351563 L12.2404297,3.16777344 C12.2404297,3.12462619 12.2054519,3.08964844 12.1623047,3.08964844 Z M10.9123047,14.9632813 L9.97480469,14.9632813 C9.93165744,14.9632813 9.89667969,14.9283035 9.89667969,14.8851563 L9.89667969,4.41777344 C9.89667969,4.37462619 9.93165744,4.33964844 9.97480469,4.33964844 L10.9123047,4.33964844 C10.9554519,4.33964844 10.9904297,4.37462619 10.9904297,4.41777344 L10.9904297,14.8851563 C10.9904297,14.9283035 10.9554519,14.9632813 10.9123047,14.9632813 Z M17.0076172,5.41015625 L13.5701172,5.41015625 C13.5269699,5.41015625 13.4919922,5.445134 13.4919922,5.48828125 L13.4919922,16.1458984 C13.4919922,16.1890457 13.5269699,16.2240234 13.5701172,16.2240234 L17.0076172,16.2240234 C17.0507644,16.2240234 17.0857422,16.1890457 17.0857422,16.1458984 L17.0857422,5.48828125 C17.0857422,5.445134 17.0507644,5.41015625 17.0076172,5.41015625 Z M15.7576172,14.9736328 L14.8201172,14.9736328 C14.7769699,14.9736328 14.7419922,14.9386551 14.7419922,14.8955078 L14.7419922,6.73828125 C14.7419922,6.695134 14.7769699,6.66015625 14.8201172,6.66015625 L15.7576172,6.66015625 C15.8007644,6.66015625 15.8357422,6.695134 15.8357422,6.73828125 L15.8357422,14.8958984 C15.8357422,14.9390457 15.8007644,14.9740234 15.7576172,14.9740234 L15.7576172,14.9736328 Z"
            id="形状"></path>
          <polygon id="路径"
                   points="18.2667969 18.7177734 1.2453125 18.7177734 1.26484375 1.87070313 2.51484375 1.87070313 2.4953125 17.4677734 18.2667969 17.4677734"></polygon>
        </g>
        <rect id="矩形备份-67" opacity="0.381324405" x="0" y="0" width="24" height="24"></rect>
      </g>
    </g>
  </g>
</svg>
