<?xml version="1.0" encoding="UTF-8"?>
<svg width="24px" height="24px" viewBox="0 0 24 24" version="1.1" xmlns="http://www.w3.org/2000/svg"
     xmlns:xlink="http://www.w3.org/1999/xlink">
  <!-- Generator: Sketch 58 (84663) - https://sketch.com -->
  <title>icon/财务基础配置</title>
  <desc>Created with Sketch.</desc>
  <g id="组件" stroke="none" stroke-width="1" fill="none" fill-rule="evenodd">
    <g id="icon/菜单栏图标" transform="translate(0.000000, -150.000000)">
      <g id="icon/财务基础配置" transform="translate(0.000000, 150.000000)">
        <g id="编组-2" transform="translate(3.000000, 3.000000)" fill="#FFFFFF">
          <rect id="矩形备份-4" opacity="0" x="0" y="0" width="19" height="19"></rect>
          <path
            d="M18,2.62804023 C18,1.72953695 17.2704631,1 16.3719598,1 L2.62804023,1 C1.72953695,1 1,1.72953695 1,2.62804023 L1,16.3719598 C1,17.2704631 1.72953695,18 2.62804023,18 L16.3719598,18 C17.2704631,18 18,17.2704631 18,16.3719598 L18,2.62804023 Z M2.46980393,2.13333333 L16.5730196,2.13333333 C16.7463529,2.13333333 16.8666667,2.24922427 16.8666667,2.41906442 L16.8666667,10.1997414 L12.7780392,10.1997414 C12.4048628,10.1997414 12.1010196,10.4834744 12.1010196,10.8511284 C12.1010196,12.2977668 10.8999216,13.4666667 9.42556864,13.4666667 C7.98792158,13.4666667 6.81129414,12.3457217 6.75215687,10.9510343 C6.75827452,10.9150682 6.76031372,10.8910907 6.76031372,10.8531265 C6.76031372,10.4874706 6.45647058,10.1997414 6.08329412,10.1997414 L2.13333333,10.1997414 L2.13333333,2.41906442 C2.13333333,2.24722616 2.29647059,2.13333333 2.46980393,2.13333333 Z M16.5730196,16.8666667 L2.46980393,16.8666667 C2.29647059,16.8666667 2.13333333,16.7211833 2.13333333,16.5685156 L2.13333333,12.3333333 L5.45113725,12.3333333 C5.77333333,14.0036978 7.4332549,15.2861067 9.42556864,15.2861067 C11.4178824,15.2861067 13.0757647,14.0036978 13.4,12.3333333 L16.8666667,12.3333333 L16.8666667,16.5685156 C16.8666667,16.7211833 16.7463529,16.8666667 16.5730196,16.8666667 L16.5730196,16.8666667 Z"
            id="形状备份" fill-rule="nonzero"></path>
          <path
            d="M6.601177,6.2111263 L13.398823,6.2111263 C13.7301946,6.2111263 14,5.94117647 14,5.60556315 C14,5.27177383 13.7301947,5 13.398823,5 L6.601177,5 C6.26980534,5 6,5.26994983 6,5.60556315 C6,5.94117647 6.26980534,6.2111263 6.601177,6.2111263 Z M6.601177,9 L13.398823,9 C13.7301946,9 14,8.73005017 14,8.39443685 C14,8.05882353 13.7301947,7.78887368 13.398823,7.78887368 L6.601177,7.78887368 C6.26980534,7.78887368 6,8.05882351 6,8.39443685 C6,8.73005018 6.26980534,9 6.601177,9 Z"
            id="形状备份-2" fill-rule="nonzero"></path>
        </g>
        <rect id="矩形备份-64" opacity="0.381324405" x="0" y="0" width="24" height="24"></rect>
      </g>
    </g>
  </g>
</svg>
