<?xml version="1.0" encoding="UTF-8"?>
<svg width="24px" height="24px" viewBox="0 0 24 24" version="1.1" xmlns="http://www.w3.org/2000/svg"
     xmlns:xlink="http://www.w3.org/1999/xlink">
  <!-- Generator: Sketch 58 (84663) - https://sketch.com -->
  <title>icon/财务报表</title>
  <desc>Created with Sketch.</desc>
  <g id="组件" stroke="none" stroke-width="1" fill="none" fill-rule="evenodd">
    <g id="icon/菜单栏图标" transform="translate(0.000000, -399.000000)">
      <g id="icon/财务报表" transform="translate(0.000000, 399.000000)">
        <g id="财务管理" transform="translate(1.000000, 1.000000)" fill="#FFFFFF" fill-rule="nonzero">
          <rect id="矩形" opacity="0" x="0" y="0" width="22" height="22"></rect>
          <path
            d="M3.88936101,9.57798213 C4.29470018,9.57798213 4.62269582,9.24963475 4.62269582,8.84464732 C4.62269582,5.1446879 7.63265306,2.13473064 11.3329862,2.13473064 C15.0325939,2.13473064 18.0425512,5.14468788 18.0425512,8.84464732 C18.0425512,10.1251252 17.6808964,11.3697673 16.9962586,12.4443547 C16.7785402,12.7859591 16.8795177,13.2392698 17.2211221,13.4566364 C17.3428756,13.5347055 17.4796448,13.5715745 17.6142815,13.5715745 C17.8563374,13.5715745 18.0941062,13.4516238 18.2337555,13.2321246 C19.0680679,11.9219449 19.5092208,10.4047756 19.5092208,8.84466932 C19.5092208,4.3361641 15.8411177,0.668083045 11.3329863,0.668083045 C6.82412928,0.668083045 3.15602624,4.33618608 3.15602624,8.84466932 C3.15602624,9.24961275 3.48402184,9.57798213 3.88936101,9.57798213 Z M13.7769592,4.91905487 C13.5511063,4.69320199 13.1850106,4.69320199 12.9594435,4.91905487 L11.3414065,6.53704788 L9.70617721,4.90181856 C9.48032433,4.67600966 9.11451436,4.67600966 8.88866148,4.90181856 C8.66285258,5.12762746 8.66285258,5.49376721 8.88866148,5.71924635 L10.7612419,7.59182673 C10.7605603,7.60336891 10.7545804,7.61321823 10.7545804,7.62495826 L10.7545804,8.2030563 L9.30930228,8.2030563 C8.98999078,8.2030563 8.73113828,8.46190879 8.73113828,8.78122029 C8.73113828,9.10053179 8.9899688,9.35931833 9.30930228,9.35931833 L10.7545804,9.35931833 L10.7545804,10.5155364 L9.30930228,10.5155364 C8.98999078,10.5155364 8.73113828,10.7744329 8.73113828,11.0936344 C8.73113828,11.412902 8.9899688,11.6717765 9.30930228,11.6717765 L10.7545804,11.6717765 L10.7545804,13.4060926 C10.7545804,13.7254041 11.0134329,13.9841467 11.3327444,13.9841467 C11.6519679,13.9841467 11.9107985,13.7254041 11.9107985,13.4060926 L11.9107985,11.6717765 L13.3560766,11.6717765 C13.6753441,11.6717765 13.9342186,11.41288 13.9342186,11.0936344 C13.9342186,10.7744109 13.6753221,10.5155364 13.3560766,10.5155364 L11.9107985,10.5155364 L11.9107985,9.35931833 L13.3560766,9.35931833 C13.6753441,9.35931833 13.9342186,9.10053179 13.9342186,8.78122029 C13.9342186,8.46190879 13.6753221,8.2030563 13.3560766,8.2030563 L11.9107985,8.2030563 L11.9107985,7.62495826 C11.9107985,7.61838471 11.9072589,7.6129544 11.907039,7.60642483 L13.7769812,5.73648264 C14.0027681,5.51071774 14.0027681,5.14486378 13.7769592,4.91905487 Z M20.4416306,15.6795273 C18.4113511,15.2627339 16.1225489,13.9844106 16.1182618,13.9844106 C15.1178081,13.3155361 14.3314893,12.9903985 13.7141698,12.9903985 C13.1942443,12.9903985 12.760984,13.2267163 12.5267988,13.6388708 C12.2238662,14.1695251 12.3219857,14.8785224 12.5740668,15.3046155 C12.6900821,15.4990516 12.9163747,15.8331371 13.1570016,16.1793804 C8.15185306,15.8653453 7.28317801,14.7205815 6.29059499,13.4125563 C5.98049523,13.0047108 5.66039227,12.5832566 5.22066841,12.1575152 C4.40999004,11.3737026 3.75041524,11.008816 3.144572,11.008816 C2.67549803,11.008816 2.27088437,11.2318988 2.00446898,11.6368862 C1.45519339,12.473353 1.63852709,13.9829815 1.83760212,14.4427338 C4.09560319,19.6573563 9.54548818,20.5686384 9.77606783,20.6048039 C9.8140141,20.6108938 9.85198236,20.6137519 9.88992864,20.6137519 L20.2940886,20.6137519 C20.6994278,20.6137519 21.0274234,20.2854045 21.0274234,19.8804171 L21.0274234,16.3978243 C21.0274234,16.0497783 20.7825095,15.7493519 20.4416306,15.6795273 Z M19.5607758,19.1471043 L9.95511443,19.1471043 C9.43591445,19.0468522 5.00868809,18.0757486 3.18610181,13.8662407 C3.08512428,13.5930319 3.06793193,12.7630287 3.20256864,12.4872916 C3.32216756,12.5231054 3.63297082,12.6627547 4.20086779,13.2116785 C4.56036805,13.5593728 4.83322505,13.918873 5.12182339,14.299501 C6.38009629,15.9562977 7.56746725,17.5214385 14.6057313,17.7105103 C14.9179636,17.7280544 15.1442782,17.5658484 15.2746058,17.3194834 C15.4049335,17.0724149 15.383454,16.7727141 15.2194672,16.5467733 C14.910093,16.121032 14.0593138,14.9332873 13.8387373,14.5612555 C13.8272831,14.5390506 13.8179614,14.5036106 13.8122453,14.4667196 C14.0106168,14.500027 14.467511,14.6450407 15.3498168,15.2326363 C15.4429237,15.2852686 17.4767648,16.4264489 19.5607758,16.977879 L19.5607758,19.1471043 L19.5607758,19.1471043 Z"
            id="形状"></path>
        </g>
        <rect id="矩形备份-69" opacity="0.381324405" x="0" y="0" width="24" height="24"></rect>
      </g>
    </g>
  </g>
</svg>
