<?xml version="1.0" encoding="UTF-8"?>
<svg width="156px" height="38px" viewBox="0 0 156 38" version="1.1" xmlns="http://www.w3.org/2000/svg" xmlns:xlink="http://www.w3.org/1999/xlink">
    <!-- Generator: Sketch 58 (84663) - https://sketch.com -->
    <title>button/取消月结</title>
    <desc>Created with Sketch.</desc>
    <defs>
        <rect id="path-1" x="0" y="0" width="140" height="34" rx="8"></rect>
        <filter x="-11.8%" y="-42.6%" width="123.6%" height="197.1%" filterUnits="objectBoundingBox" id="filter-2">
            <feMorphology radius="0.5" operator="dilate" in="SourceAlpha" result="shadowSpreadOuter1"></feMorphology>
            <feOffset dx="0" dy="2" in="shadowSpreadOuter1" result="shadowOffsetOuter1"></feOffset>
            <feGaussianBlur stdDeviation="5" in="shadowOffsetOuter1" result="shadowBlurOuter1"></feGaussianBlur>
            <feComposite in="shadowBlurOuter1" in2="SourceAlpha" operator="out" result="shadowBlurOuter1"></feComposite>
            <feColorMatrix values="0 0 0 0 0.903108642   0 0 0 0 0.933716309   0 0 0 0 0.986186594  0 0 0 1 0" type="matrix" in="shadowBlurOuter1"></feColorMatrix>
        </filter>
    </defs>
    <g id="组件" stroke="none" stroke-width="1" fill="none" fill-rule="evenodd">
        <g id="button/取消月结">
            <g id="button/完成月结" transform="translate(8.000000, 2.000000)">
                <g id="矩形备份-62">
                    <use fill="black" fill-opacity="1" filter="url(#filter-2)" xlink:href="#path-1"></use>
                    <use stroke="#D9E7FF" stroke-width="1" fill="#FFFFFF" fill-rule="evenodd" xlink:href="#path-1"></use>
                </g>
                <text id="取消月结" font-family="HappyZcool-2016" font-size="14" font-weight="normal" fill="#2C77E5">
                    <tspan x="51" y="23">取消月结</tspan>
                </text>
                <g id="已完成" transform="translate(20.000000, 11.000000)" fill="#000000" fill-rule="nonzero" opacity="0">
                    <rect id="矩形" x="0" y="0" width="12.9737557" height="13"></rect>
                </g>
            </g>
            <path d="M41.3527259,17.2078947 L41.3527259,24.2963158 C41.3520431,25.0291053 40.7252058,25.6236842 39.9522431,25.6236842 L30.051219,25.6236842 C29.2775735,25.6236842 28.6514191,25.0291053 28.6514191,24.2963158 L28.6514191,17.2078947 L41.3527259,17.2078947 Z M40.5893228,13.0013684 C41.3622855,13.0013684 41.9891227,13.5665263 41.9891227,14.2637368 L41.9891227,16.4408947 L28.0157051,16.4408947 L28.0157051,14.2637368 L28.0191192,14.1693158 C28.0723799,13.5158947 28.6773666,13.0013684 29.415505,13.0013684 L40.5893228,13.0013684 Z" id="形状" fill="#2C77E5" fill-rule="nonzero"></path>
            <g id="差号" transform="translate(31.000000, 18.000000)" fill-rule="nonzero">
                <rect id="矩形" fill="#000000" opacity="0" x="0" y="0" width="7" height="7"></rect>
                <polygon id="路径" fill="#E6EEFB" points="5.43320312 5.9171875 3.5 3.98330078 1.56679688 5.9171875 1.08349609 5.43388672 3.01669922 3.5 1.0828125 1.56679688 1.56611328 1.08349609 3.5 3.01669922 5.43320312 1.08349609 5.91650391 1.56679688 3.98330078 3.5 5.91650391 5.43320313 5.43320312 5.9171875"></polygon>
            </g>
        </g>
    </g>
</svg>