<?xml version="1.0" encoding="UTF-8"?>
<svg width="35px" height="27px" viewBox="0 0 35 27" version="1.1" xmlns="http://www.w3.org/2000/svg"
     xmlns:xlink="http://www.w3.org/1999/xlink">
  <!-- Generator: Sketch 58 (84663) - https://sketch.com -->
  <title>icon/转交·交互</title>
  <desc>Created with Sketch.</desc>
  <g id="组件" stroke="none" stroke-width="1" fill="none" fill-rule="evenodd">
    <g id="icon/卡片通用/转交·点击">
      <g id="icon/转交·鼠标放置">
        <rect id="矩形备份-63" fill="#5299F8" x="0" y="0" width="35" height="27" rx="2"></rect>
        <g id="转交任务@2x" transform="translate(11.000000, 6.000000)" fill="#FFFFFF" fill-rule="nonzero">
          <path
            d="M13.9982759,2.39865421 L13.9967203,1.51432058 C13.9967203,1.43109842 13.9920537,1.35487611 13.9811648,1.27943215 C13.8823877,0.586432156 13.2555024,0.021765495 12.5835056,0.021765495 C11.2667344,0.0202099379 9.95151725,0.0202099379 8.63630843,0.0202099379 C8.55386441,0.0202099379 8.47297609,0.0279877232 8.3850873,0.0450987506 C7.70842516,0.183543179 7.21687112,0.803431773 7.21687112,1.51898702 L7.21687112,4.35242992 C7.21687112,4.43565208 7.22153777,4.50487438 7.23087104,4.57020724 C7.32187056,5.2748742 7.9557565,5.84887344 8.64252985,5.84887344 L8.6440854,5.84887344 C8.91941735,5.84654011 9.19474931,5.84576232 9.46852556,5.84576232 L12.5594033,5.84887344 C12.8075131,5.84887344 13.0221778,5.79442902 13.2174004,5.68165076 C13.7260638,5.39153889 13.9873961,4.95676127 13.9951746,4.38976188 C14.0013968,3.75042795 14.000619,3.13598366 13.9982857,2.39865687 L13.9982759,2.39865421 Z"
            id="路径"></path>
          <path
            d="M12.8300597,4.16343805 L12.8300597,4.16343838 C12.8335127,4.42845172 12.6214774,4.64608533 12.3564672,4.6495393 C12.3561842,4.64954299 12.3559012,4.64954643 12.3556183,4.64954962 L9.59218919,4.6503274 C9.34641217,4.6503274 9.10141384,4.6503274 8.85485981,4.64721629 C8.65575041,4.64643852 8.51575089,4.5476607 8.4247517,4.34388341 L8.42475167,4.34388336 C8.39591794,4.27985221 8.38128278,4.21032646 8.38197413,4.14010574 C8.38197413,4.14010574 8.38041859,2.26254564 8.38197413,1.72899313 C8.3827519,1.4482155 8.59975024,1.21954823 8.86419398,1.21954823 L10.6071782,1.21799268 L12.3493938,1.21877045 L12.3493938,1.21877045 C12.6153815,1.22258759 12.8292374,1.43886712 12.8300579,1.7048814 C12.8362801,2.51921488 12.8362801,3.34599234 12.8300579,4.16266523 L12.8300597,4.16343805 Z"
            id="路径"></path>
          <path
            d="M6.78365496,9.67400115 C6.78365496,9.57522342 6.78209941,9.47100054 6.76498841,9.36366843 C6.65454449,8.66522429 6.03699322,8.11766874 5.35721801,8.11766874 C5.06944214,8.12000207 4.78011057,8.12077985 4.49155601,8.12077985 L1.39446214,8.1192243 C1.30890706,8.1192243 1.22568469,8.12933541 1.14868512,8.14722436 C0.475132703,8.30122436 0.00302406756,8.90633607 0.000691354852,9.62033561 C-0.000864193565,10.2456682 0.000691354852,12.4382214 0.000691354852,12.4382214 C0.000691354852,12.843444 0.139912863,13.1973331 0.415244148,13.4913318 C0.695243197,13.7899992 1.02112951,13.9424435 1.38123953,13.9424435 C2.09756949,13.9463324 2.81389777,13.9486657 3.53022605,13.9486657 C4.15711084,13.9486657 4.78244161,13.9471102 5.40777572,13.9424435 C5.78421806,13.9424435 6.11943857,13.7791102 6.40410305,13.4571096 C6.663101,13.164665 6.78832389,12.8138872 6.78602154,12.3853324 C6.78365619,11.8704434 6.78443396,11.3539986 6.78443396,10.8359998 L6.78365619,9.67399999 L6.78365496,9.67400115 Z"
            id="路径"></path>
          <path
            d="M5.62088289,9.86922322 C5.6232162,10.6446673 5.6232162,11.4224459 5.62088289,12.1978883 C5.62088289,12.4522223 5.53066122,12.608555 5.32921861,12.7034431 L5.32921862,12.7034431 C5.26511096,12.7332241 5.19534999,12.7488741 5.12466344,12.749332 L1.66279078,12.749332 C1.38434743,12.749332 1.16657132,12.5206647 1.16657132,12.2297758 L1.16579354,11.352442 C1.16579354,10.8468873 1.16501577,10.3428865 1.16812687,9.83733171 C1.16968242,9.53399883 1.36723627,9.32166565 1.64801233,9.31933126 L2.41800804,9.31699793 L5.10677693,9.31933126 C5.30588633,9.31933126 5.44044174,9.39166464 5.54310784,9.55266398 C5.59599642,9.63510846 5.62088509,9.73855348 5.62088509,9.86921953 L5.62088289,9.86922322 Z"
            id="路径"></path>
          <path
            d="M4.2364463,4.48933286 L2.86756503,4.48933286 L2.86756503,4.48933286 C2.85284167,4.49003286 2.83810768,4.48819111 2.82400981,4.48388842 L2.8240098,4.48388841 C2.8164221,4.46515693 2.81322923,4.4449354 2.81467651,4.42477721 C2.81467651,4.32133286 2.81934316,4.22488802 2.82789867,4.1315556 L2.82789858,4.13155644 C2.86231529,3.77703227 2.9512508,3.42994575 3.09156363,3.10255706 C3.26422949,2.69966893 3.51933903,2.3364455 3.83978123,2.03700106 C4.12600141,1.76711172 4.4425552,1.56177838 4.7785544,1.4248895 L4.77855443,1.42488948 C5.05792686,1.30763944 5.35503525,1.23822631 5.65743904,1.21955615 L5.92421548,1.2040006 L5.92266023,0 L5.62166176,0.021777732 L5.62166189,0.0217777235 C5.45817249,0.0317589988 5.29552326,0.0525449715 5.13477663,0.0839996717 L5.13477657,0.0839996835 C4.34963827,0.240781741 3.62516889,0.617313242 3.0456786,1.16977821 L3.04567887,1.16977796 C2.44994314,1.73479386 2.02196556,2.45347556 1.80901863,3.24643853 L1.80901862,3.24643856 C1.70637291,3.61836794 1.65405531,4.00238205 1.65346395,4.38821587 C1.65346395,4.46054925 1.64179734,4.4815493 1.64335291,4.48154913 C1.64024181,4.48388246 1.62079745,4.49243801 1.56013121,4.49243803 L0.335136203,4.49243803 L2.2795759,6.5123345 L4.23723319,4.48932996 L4.2364463,4.48933286 Z"
            id="路径"></path>
          <path
            d="M9.81385211,9.4772217 L11.1835104,9.4772217 C11.24651,9.4772217 11.2566211,9.47799947 11.2573989,9.56899942 C11.2597322,9.82566608 11.2208435,10.1017766 11.1383996,10.4136667 L11.1383996,10.4136668 C10.9688084,11.0594892 10.6013844,11.6360585 10.0876278,12.0625562 L10.0876278,12.0625562 C9.75938876,12.3432436 9.37243249,12.5468224 8.95518939,12.6583337 C8.74908019,12.7127781 8.59585806,12.7454448 8.41930379,12.751667 L8.14863893,12.7625559 L8.15097233,14 L8.47763733,13.944 C8.5087483,13.9385556 8.54219248,13.937 8.57563683,13.9354445 L8.66352529,13.9284445 L8.66352529,13.9284445 C9.14481271,13.8731769 9.61163097,13.7289112 10.0401851,13.5029994 L10.0401852,13.5029993 C10.6258465,13.2044272 11.1339284,12.7735664 11.5241765,12.2445557 L11.5241765,12.2445557 C12.0863285,11.4977459 12.3992512,10.5929876 12.4186164,9.65843854 C12.4217275,9.5503274 12.4287275,9.50443854 12.4341719,9.48421601 C12.4699495,9.47643823 12.5523935,9.47643823 12.5819489,9.47643823 L13.7377195,9.47643823 L11.7932798,7.45498773 L9.81461807,9.47720689 L9.81385211,9.4772217 Z"
            id="路径"></path>
        </g>
      </g>
    </g>
  </g>
</svg>
