<?xml version="1.0" encoding="UTF-8"?>
<svg width="35px" height="27px" viewBox="0 0 35 27" version="1.1" xmlns="http://www.w3.org/2000/svg" xmlns:xlink="http://www.w3.org/1999/xlink">
    <!-- Generator: Sketch 58 (84663) - https://sketch.com -->
    <title>icon/卡片通用/缩小·默认</title>
    <desc>Created with Sketch.</desc>
    <g id="组件" stroke="none" stroke-width="1" fill="none" fill-rule="evenodd">
        <g id="icon/卡片通用/缩小·默认">
            <g id="icon/预览·默认">
                <rect id="矩形备份-5" fill="#F0F2F5" x="0" y="0" width="35" height="27" rx="2"></rect>
                <g id="放大" transform="translate(10.000000, 5.000000)" fill-rule="nonzero">
                    <rect id="矩形" fill="#000000" opacity="0" x="0" y="0" width="16" height="16"></rect>
                    <path d="M14.8286122,13.7632091 L12.2183298,11.1502467 C13.193186,9.93579102 13.7238357,8.42434739 13.722254,6.86663588 C13.7226601,4.08964558 12.0511734,1.58588858 9.48729234,0.522992695 C6.92341124,-0.539903189 3.97211788,0.047410073 2.00974877,2.01103877 C0.0473796614,3.97466746 -0.539556863,6.92785518 0.522657217,9.49338195 C1.5848713,12.0589087 4.08702224,13.7314683 6.86223122,13.731062 C8.42436115,13.7329607 9.93979433,13.1981758 11.1551417,12.2161264 L13.7644201,14.8270796 C13.9053771,14.9726954 14.0985428,15.0560574 14.3011229,15.058762 C14.5037029,15.0613372 14.6989726,14.9830372 14.8436715,14.841144 C15.1363181,14.5390539 15.1295834,14.0569955 14.8286122,13.7632091 L14.8286122,13.7632091 Z M1.50814052,6.86764048 C1.50814049,4.9535803 2.5286244,3.18491574 4.18518584,2.22788564 C5.84174728,1.27085554 7.88271515,1.27085554 9.53927659,2.22788564 C11.195838,3.18491574 12.2163219,4.9535803 12.2163219,6.86764048 C12.2163219,9.8267985 9.81898909,12.22567 6.86172924,12.22567 C3.90446939,12.22567 1.50713656,9.8267985 1.50713656,6.86764048 L1.50814052,6.86764048 Z" id="形状" fill="#333333"></path>
                </g>
            </g>
            <path d="M14.5,11.5417688 L19.5,11.5417688 C19.7761424,11.5417688 20,11.7656264 20,12.0417688 L20,12.5 C20,12.7761424 19.7761424,13 19.5,13 L14.5,13 C14.2238576,13 14,12.7761424 14,12.5 L14,12.0417688 C14,11.7656264 14.2238576,11.5417688 14.5,11.5417688 Z" id="矩形" fill="#333333"></path>
        </g>
    </g>
</svg>