<?xml version="1.0" encoding="UTF-8"?>
<svg width="35px" height="27px" viewBox="0 0 35 27" version="1.1" xmlns="http://www.w3.org/2000/svg"
     xmlns:xlink="http://www.w3.org/1999/xlink">
  <!-- Generator: Sketch 58 (84663) - https://sketch.com -->
  <title>icon/催办·默认</title>
  <desc>Created with Sketch.</desc>
  <g id="组件" stroke="none" stroke-width="1" fill="none" fill-rule="evenodd">
    <g id="icon/卡片通用/催办·点击">
      <g id="icon/催办·默认">
        <rect id="矩形备份-62" fill="#5299F8" x="0" y="0" width="35" height="27" rx="2"></rect>
        <g id="催办" transform="translate(8.000000, 3.000000)">
          <rect id="矩形" fill="#000000" fill-rule="nonzero" opacity="0" x="0" y="0" width="20" height="20"></rect>
          <path
            d="M8.07142857,4.07335714 L8.07142857,3.42857143 C8.07142857,3.09325569 8.34325569,2.82142857 8.67857143,2.82142857 C9.01388717,2.82142857 9.28571429,3.09325569 9.28571429,3.42857143 L9.28571429,4.07335714 C11.6815,4.37207143 13.5357143,6.41571429 13.5357143,8.89285714 L13.5357143,15.5714286 L14.75,15.5714286 C15.0853157,15.5714286 15.3571429,15.8432557 15.3571429,16.1785714 C15.3571429,16.5138872 15.0853157,16.7857143 14.75,16.7857143 L9.89285714,16.7857143 C9.89285714,17.4563458 9.34920291,18 8.67857143,18 C8.00793995,18 7.46428571,17.4563458 7.46428571,16.7857143 L2.60714286,16.7857143 C2.27182712,16.7857143 2,16.5138872 2,16.1785714 C2,15.8432557 2.27182712,15.5714286 2.60714286,15.5714286 L3.82142857,15.5714286 L3.82142857,8.89285714 C3.82147012,6.44501664 5.64282086,4.3796049 8.07142857,4.07335714 Z"
            id="路径" fill="#FFFFFF" fill-rule="nonzero"></path>
          <path
            d="M6,15 L11,15 L11,10.4705882 C11,9.10612003 9.88071187,8 8.5,8 C7.11928813,8 6,9.10612003 6,10.4705882 L6,15 Z"
            id="路径" fill="#FFFFFF" fill-rule="nonzero"></path>
          <path
            d="M19,5.85714286 C19,6.1924586 18.7281729,6.46428571 18.3928571,6.46428571 C18.0575414,6.46428571 17.7857143,6.1924586 17.7857143,5.85714286 C17.7857143,3.84524841 16.1547516,2.21428571 14.1428571,2.21428571 C13.8075414,2.21428571 13.5357143,1.9424586 13.5357143,1.60714286 C13.5357143,1.27182712 13.8075414,1 14.1428571,1 C16.8253831,1 19,3.17461693 19,5.85714286 Z"
            id="路径" fill="#FFFFFF" fill-rule="nonzero"></path>
          <path
            d="M16.5714286,6.46428571 C16.5714286,6.79960146 16.2996015,7.07142857 15.9642857,7.07142857 C15.62897,7.07142857 15.3571429,6.79960146 15.3571429,6.46428571 C15.3571429,5.45833849 14.5416615,4.64285714 13.5357143,4.64285714 C13.2003985,4.64285714 12.9285714,4.37103003 12.9285714,4.03571429 C12.9285714,3.70039854 13.2003985,3.42857143 13.5357143,3.42857143 C15.212293,3.42857143 16.5714286,4.78770701 16.5714286,6.46428571 Z"
            id="路径" fill="#FFFFFF" fill-rule="nonzero"></path>
          <text id="催" font-family="PingFangSC-Semibold, PingFang SC" font-size="6" font-weight="500"
                letter-spacing="0.29999995" fill="#5299F8">
            <tspan x="6" y="13">催</tspan>
          </text>
        </g>
      </g>
    </g>
  </g>
</svg>
