<?xml version="1.0" encoding="UTF-8"?>
<svg width="35px" height="27px" viewBox="0 0 35 27" version="1.1" xmlns="http://www.w3.org/2000/svg"
     xmlns:xlink="http://www.w3.org/1999/xlink">
  <!-- Generator: Sketch 58 (84663) - https://sketch.com -->
  <title>icon/通用卡片/确定·鼠标点击</title>
  <desc>Created with Sketch.</desc>
  <g id="组件" stroke="none" stroke-width="1" fill="none" fill-rule="evenodd">
    <g id="icon/卡片通用/确定·点击">
      <g id="icon/通用卡片/确定·鼠标点击">
        <rect id="矩形备份-4" fill="#5299F8" x="0" y="0" width="35" height="27" rx="2"></rect>
        <g id="确认" transform="translate(10.000000, 5.000000)" fill-rule="nonzero">
          <rect id="矩形" fill="#000000" opacity="0" x="0" y="0" width="15" height="15"></rect>
          <path
            d="M7.5,1.07142857 C11.050402,1.07142857 13.9285714,3.94959804 13.9285714,7.5 C13.9285714,11.050402 11.050402,13.9285714 7.5,13.9285714 C3.94959804,13.9285714 1.07142857,11.050402 1.07142857,7.5 C1.07142857,3.94959804 3.94959804,1.07142857 7.5,1.07142857"
            id="路径" stroke="#FFFFFF" stroke-width="0.5" fill="#FFFFFF"></path>
          <path
            d="M7.5,0 C3.35786438,0 0,3.35786438 0,7.5 C0,11.6421356 3.35786438,15 7.5,15 C11.6421356,15 15,11.6421356 15,7.5 C15,5.51087633 14.2098237,3.60322198 12.8033009,2.19669914 C11.396778,0.790176303 9.48912367,0 7.5,0 Z"
            id="路径" stroke="#FFFFFF" stroke-width="0.5" fill="#FFFFFF"></path>
          <path
            d="M10.9098214,5.60625 L6.35625,10.1598214 C6.30595538,10.2105302 6.2374922,10.2390531 6.16607143,10.2390531 C6.09465066,10.2390531 6.02618749,10.2105302 5.97589286,10.1598214 L4.08214286,8.26607143 C4.03143412,8.21577681 4.00291117,8.14731363 4.00291117,8.07589286 C4.00291117,8.00447209 4.03143412,7.93600892 4.08214286,7.88571429 L4.47053571,7.5 C4.57501003,7.39614546 4.74373997,7.39614546 4.84821429,7.5 L6.09910714,8.75089286 C6.14076894,8.7917296 6.20744533,8.7917296 6.24910714,8.75089286 L10.1517857,4.84821429 C10.25626,4.74435975 10.42499,4.74435975 10.5294643,4.84821429 L10.9098214,5.22589286 C10.9605302,5.27618749 10.9890531,5.34465066 10.9890531,5.41607143 C10.9890531,5.4874922 10.9605302,5.55595538 10.9098214,5.60625 L10.9098214,5.60625 Z"
            id="路径" fill="#5299F8"></path>
        </g>
      </g>
    </g>
  </g>
</svg>
