<?xml version="1.0" encoding="UTF-8"?>
<svg width="35px" height="27px" viewBox="0 0 35 27" version="1.1" xmlns="http://www.w3.org/2000/svg"
     xmlns:xlink="http://www.w3.org/1999/xlink">
  <!-- Generator: Sketch 58 (84663) - https://sketch.com -->
  <title>icon/卡片通用按钮/隐藏·默认</title>
  <desc>Created with Sketch.</desc>
  <g id="组件" stroke="none" stroke-width="1" fill="none" fill-rule="evenodd" opacity="0.4">
    <g id="icon/卡片通用/隐藏·默认">
      <g id="icon/卡片通用按钮/隐藏·默认">
        <g id="icon/隐藏·默认">
          <path
            d="M6.5,-3.375 L28.5,-3.375 C29.6045695,-3.375 30.5,-2.4795695 30.5,-1.375 L30.5,28.375 C30.5,29.4795695 29.6045695,30.375 28.5,30.375 L6.5,30.375 C5.3954305,30.375 4.5,29.4795695 4.5,28.375 L4.5,-1.375 C4.5,-2.4795695 5.3954305,-3.375 6.5,-3.375 Z"
            id="矩形" fill="#F0F2F5"
            transform="translate(17.500000, 13.500000) scale(-1, 1) rotate(-90.000000) translate(-17.500000, -13.500000) "></path>
          <g id="下"
             transform="translate(16.875000, 13.000000) scale(-1, 1) rotate(-90.000000) translate(-16.875000, -13.000000) translate(4.375000, 3.000000)"
             fill="#000000" fill-rule="nonzero">
            <rect id="矩形" opacity="0" x="0" y="0" width="25" height="20"></rect>
            <polygon id="路径" points="18.75 7.5 12.5 12.5 6.25 7.5"></polygon>
          </g>
        </g>
      </g>
    </g>
  </g>
</svg>
