<?xml version="1.0" encoding="UTF-8"?>
<svg width="35px" height="27px" viewBox="0 0 35 27" version="1.1" xmlns="http://www.w3.org/2000/svg"
     xmlns:xlink="http://www.w3.org/1999/xlink">
  <!-- Generator: Sketch 58 (84663) - https://sketch.com -->
  <title>icon/刷新·默认</title>
  <desc>Created with Sketch.</desc>
  <g id="组件" stroke="none" stroke-width="1" fill="none" fill-rule="evenodd">
    <g id="icon/卡片通用/刷新">
      <g id="icon/刷新">
        <g id="icon/确定·默认备份-2" fill="#F0F2F5">
          <g id="icon/确定·默认">
            <rect id="矩形备份-4" x="0" y="0" width="35" height="27" rx="2"></rect>
          </g>
        </g>
        <g id="刷新" transform="translate(9.000000, 4.000000)" fill-rule="nonzero">
          <rect id="矩形" fill="#000000" opacity="0" x="0" y="0" width="17.5" height="17.5"></rect>
          <path
            d="M12.1610417,7.29166667 L11.6761458,2.9246875 L16.0416667,3.41104167 L14.77875,4.6746875 C15.6007161,5.87485111 16.0409194,7.29534524 16.0416667,8.75 C16.0416667,12.7770763 12.7770763,16.0416667 8.75,16.0416667 C8.34729237,16.0416667 8.02083333,15.7152076 8.02083333,15.3125 C8.02083333,14.9097924 8.34729237,14.5833333 8.75,14.5833333 C10.2970962,14.5833333 11.7808273,13.9687518 12.8747896,12.8747896 C13.9687518,11.7808273 14.5833333,10.2970962 14.5833333,8.75 C14.5831264,7.68260721 14.2870623,6.63616048 13.7280208,5.726875 L12.1610417,7.29166667 Z M8.75,2.91666667 C5.52833896,2.91666667 2.91666667,5.52833896 2.91666667,8.75 C2.91687358,9.81739279 3.21293774,10.8638395 3.77197917,11.773125 L5.33895833,10.2083333 L5.82385417,14.5753125 L1.45833333,14.0889583 L2.72125,12.8253125 C1.89928386,11.6251489 1.45908063,10.2046548 1.45833333,8.75 C1.45833333,4.7229237 4.7229237,1.45833333 8.75,1.45833333 C9.15270763,1.45833333 9.47916667,1.78479237 9.47916667,2.1875 C9.47916667,2.59020763 9.15270763,2.91666667 8.75,2.91666667 Z"
            id="形状" fill="#333333"></path>
        </g>
      </g>
    </g>
  </g>
</svg>
