<?xml version="1.0" encoding="UTF-8"?>
<svg width="35px" height="27px" viewBox="0 0 35 27" version="1.1" xmlns="http://www.w3.org/2000/svg"
     xmlns:xlink="http://www.w3.org/1999/xlink">
  <!-- Generator: Sketch 58 (84663) - https://sketch.com -->
  <title>icon/刷新</title>
  <desc>Created with Sketch.</desc>
  <g id="组件" stroke="none" stroke-width="1" fill="none" fill-rule="evenodd">
    <g id="icon/卡片通用/刷新备份">
      <g id="icon/刷新">
        <g id="icon/确定·默认备份-2" fill="#5299F8">
          <g id="icon/确定·默认">
            <rect id="矩形备份-4" x="0" y="0" width="35" height="27" rx="2"></rect>
          </g>
        </g>
        <g id="刷新" transform="translate(9.000000, 4.000000)" fill-rule="nonzero">
          <rect id="矩形" fill="#000000" opacity="0" x="0" y="0" width="17.5" height="17.5"></rect>
          <g>
            <rect id="矩形" fill="#000000" opacity="0" x="0" y="0" width="16" height="16"></rect>
            <path
              d="M12.7407407,8.88888889 C12.7407407,11.5071277 10.6182388,13.6296296 7.99999999,13.6296296 C5.38176118,13.6296296 3.25925926,11.5071277 3.25925927,8.88888887 C3.25925927,6.27065006 5.38176119,4.14814814 8,4.14814814 L8,5.92592592 L11.9466667,2.96296297 L8,0 L8,1.77777778 C4.07264178,1.77777778 0.888888891,4.96153067 0.888888891,8.88888889 C0.888888891,12.8162471 4.07264178,16 8,16 C11.9273582,16 15.1111111,12.8162471 15.1111111,8.88888889 L12.7407407,8.88888889 Z"
              id="路径" fill="#FFFFFF"></path>
            <path
              d="M5.62962962,9.18518519 C5.62962962,10.4943046 6.69088059,11.5555556 8,11.5555556 C9.30911941,11.5555556 10.3703704,10.4943046 10.3703704,9.18518519 C10.3703704,7.87606578 9.30911941,6.81481481 8,6.81481481 C6.69088059,6.81481481 5.62962962,7.87606578 5.62962962,9.18518519 Z"
              id="路径" fill="#FFFFFF"></path>
          </g>
        </g>
      </g>
    </g>
  </g>
</svg>
