<?xml version="1.0" encoding="UTF-8"?>
<svg width="156px" height="38px" viewBox="0 0 156 38" version="1.1" xmlns="http://www.w3.org/2000/svg"
     xmlns:xlink="http://www.w3.org/1999/xlink">
  <!-- Generator: Sketch 58 (84663) - https://sketch.com -->
  <title>button/完成月结</title>
  <desc>Created with Sketch.</desc>
  <defs>
    <rect id="path-1" x="0" y="0" width="156" height="38" rx="8"></rect>
    <filter x="-10.6%" y="-38.2%" width="121.2%" height="186.8%" filterUnits="objectBoundingBox" id="filter-2">
      <feMorphology radius="0.5" operator="dilate" in="SourceAlpha" result="shadowSpreadOuter1"></feMorphology>
      <feOffset dx="0" dy="2" in="shadowSpreadOuter1" result="shadowOffsetOuter1"></feOffset>
      <feGaussianBlur stdDeviation="5" in="shadowOffsetOuter1" result="shadowBlurOuter1"></feGaussianBlur>
      <feComposite in="shadowBlurOuter1" in2="SourceAlpha" operator="out" result="shadowBlurOuter1"></feComposite>
      <feColorMatrix values="0 0 0 0 0.903108642   0 0 0 0 0.933716309   0 0 0 0 0.986186594  0 0 0 1 0" type="matrix"
                     in="shadowBlurOuter1"></feColorMatrix>
    </filter>
  </defs>
  <g id="组件" stroke="none" stroke-width="1" fill="none" fill-rule="evenodd">
    <g id="button/完成月结">
      <g>
        <g id="矩形备份-62">
          <use fill="black" fill-opacity="1" filter="url(#filter-2)" xlink:href="#path-1"></use>
          <use stroke="#D9E7FF" stroke-width="1" fill="#FFFFFF" fill-rule="evenodd" xlink:href="#path-1"></use>
        </g>
        <text id="完成月结" font-family="HappyZcool-2016" font-size="16" font-weight="normal" fill="#2C77E5">
          <tspan x="57" y="25">完成月结</tspan>
        </text>
        <g id="已完成" transform="translate(22.000000, 12.000000)" fill-rule="nonzero">
          <rect id="矩形" fill="#000000" opacity="0" x="0" y="0" width="14.8271493" height="14.8271493"></rect>
          <path
            d="M15.2602582,4.79931413 L15.2602582,12.8840124 C15.2594778,13.7197954 14.5430924,14.3979424 13.6597064,14.3979424 L2.34425034,14.3979424 C1.46008401,14.3979424 0.744478972,13.7197954 0.744478972,12.8840124 L0.744478972,4.79931413 L15.2602582,4.79931413 Z M10.9073193,7.00933974 L7.63208001,10.4024158 L5.69986835,8.84946702 L4.96631464,9.7609465 L7.73196819,11.9850189 L11.750906,7.82249183 L10.9080996,7.00933974 L10.9073193,7.00933974 Z M14.3877975,0.0015607457 C15.2711834,0.0015607457 15.9875689,0.646151558 15.9875689,1.44135499 L15.9875689,3.92451232 L0.0179486552,3.92451232 L0.0179486552,1.44135499 L0.0218505412,1.33366306 C0.0827198842,0.588403721 0.774133271,0.0015607457 1.61772002,0.0015607457 L14.3877975,0.0015607457 Z"
            id="形状" fill="#2C77E5"></path>
        </g>
      </g>
    </g>
  </g>
</svg>
