<?xml version="1.0" encoding="UTF-8"?>
<svg width="90px" height="28px" viewBox="0 0 90 28" version="1.1" xmlns="http://www.w3.org/2000/svg"
     xmlns:xlink="http://www.w3.org/1999/xlink">
  <path
    d="M56.3585237,-30.9048652 L33.3946213,-30.9048652 C32.0365725,-30.9048652 30.9048652,-29.7658992 30.9048652,-28.3991401 L30.9048652,56.2068263 C30.9048652,56.7763092 31.0746213,57.2888439 31.3575481,57.7444303 C32.0931579,58.9972929 33.8473042,59.2820344 34.9790115,58.3708616 L43.7165725,49.885565 C44.4521823,49.3160821 45.4141335,49.3160821 46.1497433,49.885565 L54.8307189,58.3139133 C56.0190116,59.2250861 57.7165725,58.9403446 58.4521823,57.687482 C58.7351091,57.2318956 58.9048652,56.7193609 58.9048652,56.1498779 L58.9048652,-28.3991401 C58.9048652,-29.7658992 57.7731579,-30.9048652 56.3585237,-30.9048652 Z"
    id="形状" fill="#2C77E5" fill-rule="nonzero"
    transform="translate(44.904865, 14.000000) rotate(-90.000000) translate(-44.904865, -14.000000) "></path>
</svg>
