<?xml version="1.0" encoding="UTF-8"?>
<svg width="24px" height="24px" viewBox="0 0 24 24" version="1.1" xmlns="http://www.w3.org/2000/svg"
     xmlns:xlink="http://www.w3.org/1999/xlink">
  <!-- Generator: Sketch 58 (84663) - https://sketch.com -->
  <title>icon/基础配置</title>
  <desc>Created with Sketch.</desc>
  <g id="组件" stroke="none" stroke-width="1" fill="none" fill-rule="evenodd">
    <g id="icon/菜单栏图标" transform="translate(0.000000, -101.000000)">
      <g id="icon/基础配置" transform="translate(0.000000, 101.000000)">
        <g id="系统配置" transform="translate(3.000000, 4.000000)" fill="#FFFFFF" fill-rule="nonzero">
          <rect id="矩形" opacity="0" x="0" y="0" width="18" height="18"></rect>
          <path
            d="M17.3798437,0 L0.62015625,0 C0.277558594,0 0,0.283266932 0,0.63250996 L0,12.7758765 C0,13.1251195 0.277558594,13.4083865 0.62015625,13.4083865 L8.37984375,13.4083865 L8.37984375,16.7348008 L4.31191406,16.7348008 C3.96931641,16.7348008 3.69175781,17.0180677 3.69175781,17.3673108 C3.69175781,17.7165538 3.96931641,18 4.31191406,18 L13.6880859,18 C14.0306836,18 14.3082422,17.7167331 14.3082422,17.36749 C14.3082422,17.018247 14.0306836,16.7349801 13.6880859,16.7349801 L9.62015625,16.7349801 L9.62015625,13.4083865 L17.3798437,13.4083865 C17.7224414,13.4083865 18,13.1251195 18,12.7758765 L18,0.63250996 C18,0.283266932 17.7224414,0 17.3798437,0 Z M16.7596875,12.1433665 L1.2403125,12.1433665 L1.2403125,1.2651992 L16.7595117,1.2651992 L16.7595117,12.1433665 L16.7596875,12.1433665 Z M4.03857422,6.82673307 L4.03857422,10.2904781 C4.03857422,10.6397211 4.31613281,10.922988 4.65873047,10.922988 C5.00132812,10.922988 5.27888672,10.6397211 5.27888672,10.2904781 L5.27888672,6.82673307 C5.77669922,6.58810757 6.12369141,6.07571713 6.12369141,5.47762948 C6.12369141,4.87954183 5.77669922,4.36715139 5.27888672,4.1285259 L5.27888672,3.11808765 C5.27888672,2.76884462 5.00132812,2.48557769 4.65873047,2.48557769 C4.31613281,2.48557769 4.03857422,2.76884462 4.03857422,3.11808765 L4.03857422,4.12834661 C3.54076172,4.36697211 3.19376953,4.87936255 3.19376953,5.4774502 C3.19376953,6.07553785 3.54058594,6.58810757 4.03857422,6.82673307 Z M8.37984375,9.35695219 L8.37984375,10.2904781 C8.37984375,10.6397211 8.65740234,10.922988 9,10.922988 C9.34259766,10.922988 9.62015625,10.6397211 9.62015625,10.2904781 L9.62015625,9.35695219 C10.1179688,9.11832669 10.4649609,8.60593625 10.4649609,8.00784861 C10.4649609,7.40976096 10.1179687,6.89737052 9.62015625,6.65874502 L9.62015625,3.11790837 C9.62015625,2.76866534 9.34259766,2.48539841 9,2.48539841 C8.65740234,2.48539841 8.37984375,2.76866534 8.37984375,3.11790837 L8.37984375,6.65856574 C7.88203125,6.89719124 7.53503906,7.40958167 7.53503906,8.00766932 C7.53503906,8.60575697 7.88185547,9.11832669 8.37984375,9.35695219 Z M12.7211133,6.82673307 L12.7211133,10.2904781 C12.7211133,10.6397211 12.9986719,10.922988 13.3412695,10.922988 C13.6838672,10.922988 13.9614258,10.6397211 13.9614258,10.2904781 L13.9614258,6.82673307 C14.4592383,6.58810757 14.8062305,6.07571713 14.8062305,5.47762948 C14.8062305,4.87954183 14.4592383,4.36715139 13.9614258,4.1285259 L13.9614258,3.11808765 C13.9614258,2.76884462 13.6838672,2.48557769 13.3412695,2.48557769 C12.9986719,2.48557769 12.7211133,2.76884462 12.7211133,3.11808765 L12.7211133,4.12834661 C12.2233008,4.36697211 11.8763086,4.87936255 11.8763086,5.4774502 C11.8763086,6.07553785 12.2233008,6.58810757 12.7211133,6.82673307 Z"
            id="形状"></path>
        </g>
        <rect id="矩形备份-63" opacity="0.381324405" x="0" y="0" width="24" height="24"></rect>
      </g>
    </g>
  </g>
</svg>
