<?xml version="1.0" encoding="UTF-8"?>
<svg width="24px" height="24px" viewBox="0 0 24 24" version="1.1" xmlns="http://www.w3.org/2000/svg"
     xmlns:xlink="http://www.w3.org/1999/xlink">
  <!-- Generator: Sketch 58 (84663) - https://sketch.com -->
  <title>icon/结算管理</title>
  <desc>Created with Sketch.</desc>
  <g id="组件" stroke="none" stroke-width="1" fill="none" fill-rule="evenodd">
    <g id="icon/菜单栏图标" transform="translate(0.000000, -452.000000)">
      <g id="icon/结算管理" transform="translate(0.000000, 452.000000)">
        <g id="财务管理" transform="translate(0.000000, 1.000000)" fill="#FFFFFF" fill-rule="nonzero">
          <rect id="矩形" opacity="0" x="0" y="0" width="23" height="23"></rect>
          <path
            d="M18.9739443,20.8356641 L4.1103291,20.8356641 L4.1103291,17.6335654 L5.5478291,17.6335654 L5.5478291,19.3981641 L18.9739443,19.3981641 C19.0499971,19.3981641 19.1142354,19.3339258 19.1142354,19.257873 L19.1142354,3.68947852 C19.1142354,3.63837988 19.0694033,3.59354785 19.0183047,3.59354785 L5.5478291,3.59354785 L5.5478291,5.10099121 L4.1103291,5.10099121 L4.1103291,2.15602539 L19.0183047,2.15602539 C19.8638467,2.15602539 20.5517354,2.84391406 20.5517354,3.68945605 L20.5517354,19.2578506 C20.5517354,20.1278525 19.8439463,20.8356641 18.9739443,20.8356641 Z"
            id="路径"></path>
          <path
            d="M6.73266602,7.39061426 L2.98395801,7.39061426 C2.61858594,7.39061426 2.32136035,7.09338867 2.32136035,6.7280166 L2.32136035,5.48282715 C2.32136035,5.11745508 2.61858594,4.82022949 2.98395801,4.82022949 L6.73266602,4.82022949 C7.09803809,4.82022949 7.39526367,5.11745508 7.39526367,5.48282715 L7.39526367,6.7280166 C7.39526367,7.09338867 7.09803809,7.39061426 6.73266602,7.39061426 Z M3.10749316,6.60448145 L6.60913086,6.60448145 L6.60913086,5.6063623 L3.10749316,5.6063623 L3.10749316,6.60448145 Z M6.7117998,11.0846074 L2.9630918,11.0846074 C2.59771973,11.0846074 2.30049414,10.7873818 2.30049414,10.4220098 L2.30049414,9.17679785 C2.30049414,8.81144824 2.59771973,8.5142002 2.9630918,8.5142002 L6.7117998,8.5142002 C7.07717188,8.5142002 7.37439746,8.81144824 7.37439746,9.17679785 L7.37439746,10.4220098 C7.37439746,10.7873818 7.07717188,11.0846074 6.7117998,11.0846074 Z M3.08662695,10.2984746 L6.58826465,10.2984746 L6.58826465,9.30033301 L3.08662695,9.30033301 L3.08662695,10.2984746 Z M6.73266602,14.5072949 L2.98395801,14.5072949 C2.61858594,14.5072949 2.32136035,14.2100693 2.32136035,13.8446973 L2.32136035,12.5995078 C2.32136035,12.2341357 2.61858594,11.9369102 2.98395801,11.9369102 L6.73266602,11.9369102 C7.09803809,11.9369102 7.39526367,12.2341357 7.39526367,12.5995078 L7.39526367,13.8446973 C7.39526367,14.2100469 7.09803809,14.5072949 6.73266602,14.5072949 Z M3.10749316,13.7211621 L6.60913086,13.7211621 L6.60913086,12.723043 L3.10749316,12.723043 L3.10749316,13.7211621 Z M6.7117998,18.2012881 L2.9630918,18.2012881 C2.59771973,18.2012881 2.30049414,17.9040625 2.30049414,17.5386904 L2.30049414,16.293501 C2.30049414,15.9281289 2.59771973,15.6309033 2.9630918,15.6309033 L6.7117998,15.6309033 C7.07717188,15.6309033 7.37439746,15.9281289 7.37439746,16.293501 L7.37439746,17.5386904 C7.37439746,17.90404 7.07717188,18.2012881 6.7117998,18.2012881 Z M3.08662695,17.4151553 L6.58826465,17.4151553 L6.58826465,16.4170361 L3.08662695,16.4170361 L3.08662695,17.4151553 Z"
            id="形状"></path>
          <path
            d="M4.16883984,7.18741016 L5.60633984,7.18741016 L5.60633984,8.70579199 L4.16883984,8.70579199 L4.16883984,7.18741016 Z M4.07901855,10.6597813 L5.51651855,10.6597813 L5.51651855,12.2095186 L4.07901855,12.2095186 L4.07901855,10.6597813 Z M4.14637891,14.3742139 L5.58387891,14.3742139 L5.58387891,16.1175195 L4.14637891,16.1175195 L4.14637891,14.3742139 Z M12.2212656,11.5028525 L13.6587656,11.5028525 L13.6587656,17.2455303 L12.2212656,17.2455303 L12.2212656,11.5028525 Z"
            id="形状"></path>
          <path
            d="M9.76136621,10.7841025 L16.1848574,10.7841025 L16.1848574,12.2216025 L9.76136621,12.2216025 L9.76136621,10.7841025 Z M9.76136621,13.1649619 L16.1848574,13.1649619 L16.1848574,14.6024619 L9.76136621,14.6024619 L9.76136621,13.1649619 Z"
            id="形状"></path>
          <polygon id="路径"
                   points="12.7942666 12.6257871 8.94160937 6.8865459 10.5913877 6.83046094 13.9829443 11.817418"></polygon>
          <polygon id="路径"
                   points="13.1070352 12.6257871 11.9183574 11.817418 15.3098916 6.83046094 16.9597598 6.9202373"></polygon>
        </g>
        <rect id="矩形备份-70" opacity="0.381324405" x="0" y="0" width="24" height="24"></rect>
      </g>
    </g>
  </g>
</svg>
