<?xml version="1.0" encoding="UTF-8"?>
<svg width="64px" height="64px" viewBox="0 0 64 64" version="1.1" xmlns="http://www.w3.org/2000/svg" xmlns:xlink="http://www.w3.org/1999/xlink">
    <!-- Generator: Sketch 58 (84663) - https://sketch.com -->
    <title>button/看板调整后·新增</title>
    <desc>Created with Sketch.</desc>
    <g id="组件" stroke="none" stroke-width="1" fill="none" fill-rule="evenodd">
        <g id="button/看板调整后·新增">
            <g transform="translate(9.000000, 12.000000)">
                <g id="button/看板调整前备份-3" stroke="#EEEEEE">
                    <circle id="椭圆形-copy备份-5" cx="22" cy="22" r="22"></circle>
                </g>
                <g id="加备份" transform="translate(15.812500, 15.812500)" fill-rule="nonzero">
                    <rect id="矩形" fill="#FFFFFF" opacity="0" x="0" y="0" width="13.0625" height="13.0625"></rect>
                    <path d="M11.8085,4.8984375 C11.9739583,4.8984375 12.1328854,4.93109375 12.2852813,4.99640625 C12.4376771,5.06171875 12.5683021,5.14880208 12.6771563,5.25765625 C12.7860104,5.36651042 12.8730938,5.49713542 12.9384062,5.64953125 C13.0037187,5.80192708 13.036375,5.96085417 13.036375,6.1263125 C13.036375,6.30047917 13.0037187,6.46158333 12.9384062,6.609625 C12.8730938,6.75766667 12.7860104,6.88611458 12.6771563,6.99496875 C12.5683021,7.10382292 12.4376771,7.19090625 12.2852813,7.25621875 C12.1328854,7.32153125 11.9739583,7.3541875 11.8085,7.3541875 L8.1379375,7.3541875 L8.1379375,11.02475 C8.1379375,11.1989167 8.10528125,11.3600208 8.03996875,11.5080625 C7.97465625,11.6561042 7.88757292,11.7845521 7.77871875,11.8934063 C7.66986458,12.0022604 7.53923958,12.0893438 7.38684375,12.1546563 C7.23444792,12.2199688 7.07552083,12.252625 6.9100625,12.252625 C6.73589583,12.252625 6.57479167,12.2199688 6.42675,12.1546563 C6.27870833,12.0893438 6.15026042,12.0022604 6.04140625,11.8934063 C5.93255208,11.7845521 5.84546875,11.6561042 5.78015625,11.5080625 C5.71484375,11.3600208 5.6821875,11.1989167 5.6821875,11.02475 L5.6821875,7.3541875 L2.011625,7.3541875 C1.83745833,7.3541875 1.67635417,7.32153125 1.5283125,7.25621875 C1.38027083,7.19090625 1.25182292,7.10382292 1.14296875,6.99496875 C1.03411458,6.88611458 0.94703125,6.75766667 0.88171875,6.609625 C0.81640625,6.46158333 0.78375,6.30047917 0.78375,6.1263125 C0.78375,5.96085417 0.81640625,5.80192708 0.88171875,5.64953125 C0.94703125,5.49713542 1.03411458,5.36651042 1.14296875,5.25765625 C1.25182292,5.14880208 1.38027083,5.06171875 1.5283125,4.99640625 C1.67635417,4.93109375 1.83745833,4.8984375 2.011625,4.8984375 L5.6821875,4.8984375 L5.6821875,1.227875 C5.6821875,1.06241667 5.71484375,0.903489583 5.78015625,0.75109375 C5.84546875,0.598697917 5.93255208,0.468072917 6.04140625,0.35921875 C6.15026042,0.250364583 6.27870833,0.16328125 6.42675,0.09796875 C6.57479167,0.03265625 6.73589583,5.68434189e-14 6.9100625,5.68434189e-14 C7.2496875,5.68434189e-14 7.53923958,0.119739583 7.77871875,0.35921875 C8.01819792,0.598697917 8.1379375,0.88825 8.1379375,1.227875 L8.1379375,4.8984375 L11.8085,4.8984375 Z" id="路径" fill="#2C77E5"></path>
                </g>
            </g>
        </g>
    </g>
</svg>