<?xml version="1.0" encoding="UTF-8"?>
<svg width="24px" height="24px" viewBox="0 0 24 24" version="1.1" xmlns="http://www.w3.org/2000/svg" xmlns:xlink="http://www.w3.org/1999/xlink">
    <!-- Generator: Sketch 58 (84663) - https://sketch.com -->
    <title>icon/期间选择</title>
    <desc>Created with Sketch.</desc>
    <g id="网页设计_2020版-设计2稿" stroke="none" stroke-width="1" fill="none" fill-rule="evenodd">
        <g id="月结/默认/上下结构/任务清单1" transform="translate(-257.000000, -119.000000)">
            <g id="card/月结看板" transform="translate(230.000000, 91.000000)">
                <g id="icon/期间选择组合">
                    <g transform="translate(27.000000, 28.000000)">
                        <g id="icon/期间选择">
                            <g transform="translate(0.000000, 0.000000)">
                                <g id="icon/系统管理备份" transform="translate(0.000000, 0.427984)" opacity="0.381324405">
                                    <rect id="矩形备份-62" x="0" y="0" width="23" height="23.1111111"></rect>
                                </g>
                                <g id="本月" transform="translate(1.703704, 1.283951)" fill-rule="nonzero">
                                    <rect id="矩形" fill="#FFFFFF" opacity="0" x="0" y="0" width="18.7407407" height="18.8312757"></rect>
                                    <path d="M13.8771919,3.76625514 L14.3293814,3.76625514 C14.7212789,3.76625514 14.9925926,3.4906755 14.9925926,3.18447589 L14.9925926,0.61239921 C14.9624466,0.244959684 14.691133,0 14.3293814,0 L13.8771919,0 C13.4852944,0 13.2139807,0.275579645 13.2139807,0.643019171 L13.2139807,3.18447589 C13.2139807,3.4906755 13.4852944,3.76625514 13.8771919,3.76625514 Z M4.41135935,3.76625514 L4.8635488,3.76625514 C5.25544633,3.76625514 5.52676,3.4906755 5.52676,3.18447589 L5.52676,0.61239921 C5.49661404,0.244959684 5.22530037,0 4.8635488,0 L4.41135935,0 C4.01946182,0 3.74814815,0.275579645 3.74814815,0.643019171 L3.74814815,3.18447589 C3.74814815,3.4906755 4.01946182,3.76625514 4.41135935,3.76625514 Z" id="形状" fill="#333333"></path>
                                    <path d="M17.4934401,2.82469136 L16.2175883,2.82469136 L16.2175883,3.88785932 C16.2175883,4.6852353 15.5648269,5.30541661 14.7637106,5.30541661 L14.318646,5.30541661 C13.5175297,5.30541661 12.8647683,4.6852353 12.8647683,3.88785932 L12.8647683,2.82469136 L6.90090267,2.82469136 L6.90090267,3.88785932 C6.90090267,4.6852353 6.24814126,5.30541661 5.44702498,5.30541661 L5.00196038,5.30541661 C4.2008441,5.30541661 3.54808269,4.6852353 3.54808269,3.88785932 L3.54808269,2.82469136 L2.21288889,2.82469136 C1.50078553,2.82469136 0.937037037,3.35627534 0.937037037,4.06505398 L0.937037037,17.5909131 C0.937037037,18.2701593 1.50078553,18.8312757 2.21288889,18.8312757 L17.4340982,18.8312757 C18.1462016,18.8312757 18.7099501,18.2996917 18.739621,17.5909131 L18.739621,4.06505398 C18.769292,3.35627534 18.2055435,2.82469136 17.4934401,2.82469136 Z M2.21288889,17.5909131 L2.21288889,6.929701 L17.4340982,6.929701 C17.4340982,6.929701 17.4340982,17.5909131 17.4637692,17.5909131 L2.21288889,17.5909131 Z" id="形状" fill="#333333"></path>
                                    <path d="M6.7896782,8.47407407 L6.7896782,11.5808682 C6.7896782,12.5480777 6.69751063,13.2515028 6.60534305,13.7204528 C6.45173042,14.1600935 6.11378264,14.6583529 5.62222222,15.127303 C6.02161506,15.3910874 6.35956284,15.6841812 6.75895568,16.0065844 C7.15834851,15.6548718 7.43485124,15.3324687 7.58846387,15.0100655 C7.77279903,14.6290436 7.89568913,14.1600935 8.01857923,13.6032153 L11.8896175,13.6032153 L11.8896175,14.1894029 C11.8896175,14.5704248 11.7052823,14.7462811 11.2137219,14.7462811 C10.7836066,14.7462811 10.3227687,14.7462811 9.73904068,14.7169717 C9.86193078,15.0979936 9.98482089,15.5376343 10.0462659,15.9479656 C10.9372192,15.9479656 11.5516697,15.9186562 11.9510625,15.9186562 C12.3504554,15.9186562 12.6269581,15.7721093 12.8112933,15.5376343 C12.9956284,15.2738499 13.1185185,14.9221374 13.1185185,14.4531873 L13.1185185,8.47407407 L6.7896782,8.47407407 Z M11.7974499,12.4894589 L7.98785671,12.4894589 C8.01857923,12.0498183 8.01857923,11.6981057 7.98785671,11.5515588 L11.7974499,11.5515588 L11.7974499,12.4894589 Z M11.7974499,10.4964212 L7.98785671,10.4964212 L7.98785671,9.55852108 L11.7974499,9.55852108 L11.7974499,10.4964212 Z" id="形状" fill="#333333"></path>
                                </g>
                            </g>
                        </g>
                    </g>
                </g>
            </g>
        </g>
    </g>
</svg>