<?xml version="1.0" encoding="UTF-8"?>
<svg width="64px" height="64px" viewBox="0 0 64 64" version="1.1" xmlns="http://www.w3.org/2000/svg" xmlns:xlink="http://www.w3.org/1999/xlink">
    <!-- Generator: Sketch 58 (84663) - https://sketch.com -->
    <title>button/恢复初始前</title>
    <desc>Created with Sketch.</desc>
    <g id="组件" stroke="none" stroke-width="1" fill="none" fill-rule="evenodd">
        <g id="button/恢复初始前">
            <g transform="translate(9.000000, 12.000000)">
                <circle id="椭圆形-copy备份-6" stroke="#EEEEEE" cx="22" cy="22" r="22"></circle>
                <g id="恢复备份" transform="translate(10.312500, 11.000000)" fill-rule="nonzero">
                    <rect id="矩形" fill="#000000" opacity="0" x="0" y="0" width="22" height="22"></rect>
                    <polygon id="路径" fill="#1AD8E2" points="3.72515 9.70695 3.72515 8.195 18.27485 8.195 18.27485 9.7064 3.72515 9.7064"></polygon>
                    <polygon id="路径" fill="#1AD8E2" points="13.0383 16.39165 13.0383 17.9025 18.2743 17.9025 18.2743 16.39165"></polygon>
                    <polygon id="路径" fill="#1AD8E2" points="13.0383 12.29415 13.0383 13.805 18.2743 13.805 18.2743 12.29415"></polygon>
                    <path d="M10.69805,13.7379 L10.67055,13.6884 C10.6526806,13.6532373 10.6301066,13.6206715 10.60345,13.5916 L7.9695,10.956 C7.82821774,10.8143103 7.63608949,10.7350822 7.436,10.7359921 L7.4349,10.7359921 C7.1304854,10.7370403 6.85646205,10.9207612 6.73989102,11.2019738 C6.62331999,11.4831864 6.68699863,11.806895 6.9014,12.023 L8.24615,13.36885 L4.31585,13.36885 C1.93655,13.3694 0,15.3054 0,17.68415 C0,20.06345 1.93655,22 4.31585,22 L8.9617,22 L8.9617,20.48915 L4.31585,20.48915 C2.76699503,20.48915 1.5114,19.233555 1.5114,17.6847 C1.5114,16.135845 2.76699503,14.88025 4.31585,14.88025 L8.24615,14.88025 L6.9025,16.22555 C6.6867263,16.4410759 6.6220232,16.765356 6.73856001,17.0471872 C6.85509681,17.3290185 7.12992516,17.5129029 7.4349,17.5131 L7.436,17.5131 C7.6362,17.5142 7.8287,17.435 7.9695,17.29255 L10.604,14.6586 C10.6310831,14.6279259 10.653844,14.5936921 10.67165,14.55685 L10.69805,14.51065 C10.71125,14.4892 10.72555,14.46885 10.7404,14.4485 C10.84105,14.2307 10.84105,14.0184 10.7646,13.8325 C10.7411136,13.8019038 10.718911,13.7703431 10.69805,13.7379 L10.69805,13.7379 Z" id="路径" fill="#1B7AFF"></path>
                    <polygon id="路径" fill="#1AD8E2" points="18.27485 5.6089 18.27485 4.0975 3.72515 4.0975 3.72515 5.60835 18.27485 5.60835"></polygon>
                    <polygon id="路径" stroke="#2C77E5" stroke-width="0.5" fill="#1B7AFF" points="22 0 0 0 0 10.38455 1.51085 10.38455 1.51085 1.51085 20.48915 1.51085 20.48915 20.48915 13.0383 20.48915 13.0383 22 22 22"></polygon>
                </g>
            </g>
        </g>
    </g>
</svg>