<?xml version="1.0" encoding="UTF-8"?>
<svg width="24px" height="24px" viewBox="0 0 24 24" version="1.1" xmlns="http://www.w3.org/2000/svg"
     xmlns:xlink="http://www.w3.org/1999/xlink">
  <!-- Generator: Sketch 58 (84663) - https://sketch.com -->
  <title>icon/会计引擎</title>
  <desc>Created with Sketch.</desc>
  <g id="组件" stroke="none" stroke-width="1" fill="none" fill-rule="evenodd">
    <g id="icon/菜单栏图标" transform="translate(0.000000, -253.000000)">
      <g id="icon/会计引擎" transform="translate(0.000000, 253.000000)">
        <g id="计算器" transform="translate(0.000000, 1.000000)" fill="#FFFFFF" fill-rule="nonzero">
          <rect id="矩形" opacity="0" x="0" y="0" width="23" height="23"></rect>
          <path
            d="M18.4853516,21.2705078 L4.51464844,21.2705078 C3.60947266,21.2705078 2.875,20.5337891 2.875,19.6286133 L2.875,3.37138672 C2.875,2.46621094 3.60947266,1.72949219 4.51464844,1.72949219 L18.4853516,1.72949219 C19.3905273,1.72949219 20.125,2.46621094 20.125,3.37138672 L20.125,19.6308594 C20.125,20.5337891 19.3905273,21.2705078 18.4853516,21.2705078 Z M4.51464844,2.98730469 C4.30351563,2.98730469 4.1328125,3.16025391 4.1328125,3.37138672 L4.1328125,19.6308594 C4.1328125,19.8419922 4.30351563,20.0149414 4.51464844,20.0149414 L18.4853516,20.0149414 C18.6964844,20.0149414 18.8671875,19.8419922 18.8671875,19.6308594 L18.8671875,3.37138672 C18.8671875,3.16025391 18.6964844,2.98730469 18.4853516,2.98730469 L4.51464844,2.98730469 Z"
            id="形状"></path>
          <path
            d="M3.52412109,7.1515625 L19.4758789,7.1515625 L19.4758789,8.409375 L3.52412109,8.409375 L3.52412109,7.1515625 Z M6.78095703,11.4955078 L10.3567383,11.4955078 L10.3567383,12.7533203 L6.78095703,12.7533203 L6.78095703,11.4955078 Z"
            id="形状"></path>
          <path
            d="M7.93994141,10.35 L9.19775391,10.35 L9.19775391,13.94375 L7.93994141,13.94375 L7.93994141,10.35 Z M14.1123867,15.2056953 L16.6408145,17.734123 L15.7514062,18.6235312 L13.2229785,16.0951035 L14.1123867,15.2056953 Z"
            id="形状"></path>
          <path
            d="M15.7735303,15.183459 L16.662916,16.0728672 L14.1217754,18.6140078 L13.2323896,17.7245996 L15.7735303,15.183459 Z M15.2345576,9.90576758 L16.1238311,10.7952881 L7.78453418,19.1322266 L6.89526074,18.2427061 L15.2345576,9.90576758 Z"
            id="形状"></path>
        </g>
        <rect id="矩形备份-66" opacity="0.381324405" x="0" y="0" width="24" height="24"></rect>
      </g>
    </g>
  </g>
</svg>
