<?xml version="1.0" encoding="UTF-8"?>
<svg width="24px" height="24px" viewBox="0 0 24 24" version="1.1" xmlns="http://www.w3.org/2000/svg"
     xmlns:xlink="http://www.w3.org/1999/xlink">
  <!-- Generator: Sketch 58 (84663) - https://sketch.com -->
  <title>icon/期间管理 2</title>
  <desc>Created with Sketch.</desc>
  <g id="组件" stroke="none" stroke-width="1" fill="none" fill-rule="evenodd">
    <g id="icon/菜单栏图标" transform="translate(0.000000, -202.000000)">
      <g id="icon/期间管理-2" transform="translate(0.000000, 202.000000)">
        <g id="icon/期间管理">
          <g id="财务流水" transform="translate(2.000000, 2.000000)" fill="#FFFFFF" fill-rule="nonzero">
            <rect id="矩形" opacity="0" x="0" y="0" width="21" height="21"></rect>
            <path
              d="M14.4375,19.6875 C13.2105176,19.6875 12.0569531,19.209668 11.1892676,18.3419824 C10.321582,17.4742969 9.84375,16.3207324 9.84375,15.09375 C9.84375,13.8667676 10.321582,12.7132031 11.1892676,11.8455176 C12.0569531,10.977832 13.2105176,10.5 14.4375,10.5 C15.6644824,10.5 16.8180469,10.977832 17.6857324,11.8455176 C18.553418,12.7132031 19.03125,13.8667676 19.03125,15.09375 C19.03125,16.3207324 18.553418,17.4742969 17.6857324,18.3419824 C16.8180469,19.209668 15.6644824,19.6875 14.4375,19.6875 Z M14.4375,11.8125 C12.6283008,11.8125 11.15625,13.2845508 11.15625,15.09375 C11.15625,16.9029492 12.6283008,18.375 14.4375,18.375 C16.2466992,18.375 17.71875,16.9029492 17.71875,15.09375 C17.71875,13.2845508 16.2466992,11.8125 14.4375,11.8125 Z"
              id="形状"></path>
            <path
              d="M13.9828418,16.8961816 L13.9828418,16.1511328 L13.093623,16.1511328 C12.9012598,16.1511328 12.8052832,16.0633594 12.8052832,15.8867871 C12.8210742,15.7426172 12.9172559,15.6546387 13.093623,15.6224414 L13.9828418,15.6224414 L13.9828418,15.2139258 L13.093623,15.2139258 C12.9012598,15.2139258 12.8052832,15.1261523 12.8052832,14.9495801 C12.8210742,14.8054102 12.9172559,14.7174316 13.093623,14.6852344 L13.5983203,14.6852344 L12.8292773,13.6038574 C12.7488867,13.5400781 12.7170996,13.4516895 12.7330957,13.3395117 C12.7488867,13.067168 12.9012598,12.9152051 13.1898047,12.8828027 C13.3339746,12.8990039 13.4541504,12.9631934 13.550332,13.075166 L14.4395508,14.3489063 L15.3287695,13.075166 C15.40875,12.9631934 15.5289258,12.8990039 15.6892969,12.8828027 C15.9616406,12.915 16.1136035,13.067168 16.1460059,13.3395117 C16.1460059,13.4516895 16.1138086,13.5400781 16.0498242,13.6038574 L15.2807813,14.6852344 L15.7854785,14.6852344 C15.9454395,14.7174316 16.0416211,14.8054102 16.0738184,14.9495801 C16.0576172,15.1261523 15.9616406,15.2139258 15.7854785,15.2139258 L14.8962598,15.2139258 L14.8962598,15.6224414 L15.7854785,15.6224414 C15.9454395,15.6546387 16.0416211,15.7426172 16.0738184,15.8867871 C16.0576172,16.0633594 15.9616406,16.1511328 15.7854785,16.1511328 L14.8962598,16.1511328 L14.8962598,16.8961816 C14.8800586,17.1687305 14.7280957,17.3046973 14.4395508,17.3046973 C14.1350098,17.3046973 13.9828418,17.1687305 13.9828418,16.8961816 Z M10.5,19.6875 L3.65039062,19.6875 C2.72323242,19.6875 1.96875,18.9250195 1.96875,17.9878125 L1.96875,3.38132813 C1.96875,2.44412109 2.72323242,1.68164062 3.65039062,1.68164062 L7.0546875,1.68164062 C7.41706055,1.68164062 7.7109375,1.97551758 7.7109375,2.33789062 C7.7109375,2.70026367 7.41706055,2.99414062 7.0546875,2.99414062 L3.65039062,2.99414062 C3.44674805,2.99414062 3.28125,3.1678418 3.28125,3.38132813 L3.28125,17.9880176 C3.28125,18.2015039 3.44674805,18.3752051 3.65039062,18.3752051 L10.5,18.3752051 C10.862373,18.3752051 11.15625,18.669082 11.15625,19.0314551 C11.15625,19.3938281 10.862373,19.6875 10.5,19.6875 Z M18.375,11.8125 C18.012627,11.8125 17.71875,11.518623 17.71875,11.15625 L17.71875,3.38132813 C17.71875,3.1678418 17.553252,2.99414062 17.3496094,2.99414062 L13.9453125,2.99414062 C13.5829395,2.99414062 13.2890625,2.70026367 13.2890625,2.33789062 C13.2890625,1.97551758 13.5829395,1.68164062 13.9453125,1.68164062 L17.3496094,1.68164062 C18.2767676,1.68164062 19.03125,2.44412109 19.03125,3.38132813 L19.03125,11.15625 C19.03125,11.518623 18.737373,11.8125 18.375,11.8125 Z"
              id="形状"></path>
            <path
              d="M15.421875,6.5625 L5.578125,6.5625 C5.2171875,6.5625 4.921875,6.2671875 4.921875,5.90625 C4.921875,5.5453125 5.2171875,5.25 5.578125,5.25 L15.421875,5.25 C15.7828125,5.25 16.078125,5.5453125 16.078125,5.90625 C16.078125,6.2671875 15.7828125,6.5625 15.421875,6.5625 Z M12.46875,9.1875 L5.578125,9.1875 C5.2171875,9.1875 4.921875,8.8921875 4.921875,8.53125 C4.921875,8.1703125 5.2171875,7.875 5.578125,7.875 L12.46875,7.875 C12.8296875,7.875 13.125,8.1703125 13.125,8.53125 C13.125,8.8921875 12.8296875,9.1875 12.46875,9.1875 Z M9.84375,11.8125 L5.578125,11.8125 C5.2171875,11.8125 4.921875,11.5171875 4.921875,11.15625 C4.921875,10.7953125 5.2171875,10.5 5.578125,10.5 L9.84375,10.5 C10.2046875,10.5 10.5,10.7953125 10.5,11.15625 C10.5,11.5171875 10.2046875,11.8125 9.84375,11.8125 Z M12.2431641,3.36328125 L8.75683594,3.36328125 C8.41845703,3.36328125 8.14160156,3.08642578 8.14160156,2.74804688 L8.14160156,1.92773438 C8.14160156,1.58935547 8.41845703,1.3125 8.75683594,1.3125 L12.2431641,1.3125 C12.581543,1.3125 12.8583984,1.58935547 12.8583984,1.92773438 L12.8583984,2.74804688 C12.8583984,3.08642578 12.581543,3.36328125 12.2431641,3.36328125 Z"
              id="形状"></path>
          </g>
          <rect id="矩形备份-65" opacity="0.381324405" x="0" y="0" width="24" height="24"></rect>
        </g>
      </g>
    </g>
  </g>
</svg>
