<?xml version="1.0" encoding="UTF-8"?>
<svg width="24px" height="24px" viewBox="0 0 24 24" version="1.1" xmlns="http://www.w3.org/2000/svg"
     xmlns:xlink="http://www.w3.org/1999/xlink">
  <!-- Generator: Sketch 58 (84663) - https://sketch.com -->
  <title>icon/收入确认报表</title>
  <desc>Created with Sketch.</desc>
  <g id="组件" stroke="none" stroke-width="1" fill="none" fill-rule="evenodd">
    <g id="icon/菜单栏图标" transform="translate(0.000000, -500.000000)">
      <g id="icon/收入确认报表" transform="translate(0.000000, 500.000000)">
        <g id="采购财务" fill="#FFFFFF" fill-rule="nonzero">
          <rect id="矩形" opacity="0" x="0" y="0" width="23" height="23"></rect>
          <path
            d="M21.5526172,17.6500293 C21.5364453,17.5029102 21.5076953,17.3578125 21.4733301,17.2149609 C21.4389648,17.0718848 21.3976367,16.9310547 21.3511426,16.7924707 C21.2579994,16.5171126 21.1416847,16.2501447 21.0034473,15.9944336 C20.8655371,15.7410742 20.7074121,15.5009668 20.5299707,15.2790527 C20.5097559,15.2494043 20.4816797,15.2273926 20.4562988,15.2033594 C20.4295703,15.18 20.4039648,15.156416 20.3765625,15.1339551 C20.3231055,15.0883594 20.2674023,15.0452344 20.2116992,15.0032324 C20.0993945,14.9194531 19.9825977,14.8421875 19.8628809,14.7705371 C19.6234473,14.6274609 19.3721094,14.5057227 19.1167285,14.4039746 C18.9891504,14.3534375 18.8602246,14.3073926 18.7328711,14.2687598 C18.7009766,14.2591016 18.6693066,14.2498926 18.6378613,14.2411328 C18.6073145,14.2334961 18.5805859,14.2281055 18.5516113,14.2227148 C18.4947852,14.2119336 18.4377344,14.203623 18.3806836,14.197334 C18.151582,14.1728516 17.9182129,14.1811621 17.6754102,14.2110352 C17.4330566,14.2409082 17.1817187,14.2923438 16.920498,14.3552344 L16.9207227,12.1091406 C17.2504492,12.1727051 17.5907324,12.2501953 17.9337109,12.3618262 C18.1050879,12.4175293 18.2766895,12.4824414 18.4458203,12.5576855 C18.6149512,12.6333789 18.7811621,12.7200781 18.9404102,12.818457 C19.0199219,12.8678711 19.0976367,12.9204297 19.1731055,12.9756836 C19.2103906,13.0026367 19.2487988,13.0325098 19.2833887,13.0596875 C19.3166309,13.086416 19.3494238,13.1133691 19.381543,13.1405469 C19.5102441,13.2490332 19.6313086,13.3613379 19.7481055,13.4767871 C19.9805762,13.7081348 20.1946289,13.9536328 20.3853223,14.215752 C20.4805566,14.3466992 20.5697266,14.4819141 20.6510352,14.6211719 C20.6914648,14.6910254 20.7305469,14.7613281 20.7664844,14.8334277 C20.7849023,14.868916 20.8019727,14.905752 20.8192676,14.9416895 C20.8361133,14.9780762 20.8511621,15.0158105 20.871377,15.0483789 C21.0245605,15.3163379 21.1516895,15.5962012 21.2541113,15.8825781 C21.3552329,16.1675025 21.4320981,16.460462 21.4838867,16.7583301 C21.509043,16.9063477 21.528584,17.0548145 21.5407129,17.2035059 C21.553291,17.3528711 21.5593555,17.5020117 21.5526172,17.6500293 L21.5526172,17.6500293 Z"
            id="路径"></path>
          <polygon id="路径" points="17.3234473 16.2343164 17.3238965 10.2311816 14.3228906 13.2324121"></polygon>
          <path
            d="M20.84375,12.2412115 C20.6595703,12.2412115 20.4753906,12.1709082 20.3350098,12.0300781 L11.5,3.17395508 L2.66499023,12.0300781 C2.38467773,12.3110645 1.92961914,12.3117383 1.64863281,12.0312012 C1.36764648,11.7508887 1.36697266,11.2958301 1.64750977,11.0148437 L10.9912598,1.64863281 C11.1260254,1.51341797 11.309082,1.4375 11.5,1.4375 C11.690918,1.4375 11.8739746,1.51341797 12.0087402,1.64863281 L21.3524902,11.0148437 C21.6328027,11.2958301 21.6323535,11.7508887 21.3513672,12.0312012 C21.2109863,12.1713574 21.0274805,12.2412115 20.84375,12.2412115 Z"
            id="路径"></path>
          <path
            d="M18.6875,21.5625 L4.3125,21.5625 C3.91561523,21.5625 3.59375,21.2406348 3.59375,20.84375 L3.59375,12.9599609 C3.59375,12.5630762 3.91561523,12.2412109 4.3125,12.2412109 C4.70938477,12.2412109 5.03125,12.5630762 5.03125,12.9599609 L5.03125,20.125 L17.96875,20.125 L17.96875,16.53125 C17.96875,16.1343652 18.2906152,15.8125 18.6875,15.8125 C19.0843848,15.8125 19.40625,16.1343652 19.40625,16.53125 L19.40625,20.84375 C19.40625,21.2406348 19.0843848,21.5625 18.6875,21.5625 Z"
            id="路径"></path>
          <path
            d="M10.7531738,18.0100781 L10.7531738,16.7861816 L9.29231445,16.7861816 C8.97651367,16.7861816 8.81861328,16.6417578 8.81861328,16.3517871 C8.84444336,16.1148242 9.00234375,15.970625 9.29231445,15.9173926 L10.7531738,15.9173926 L10.7531738,15.2462598 L9.29231445,15.2462598 C8.97651367,15.2462598 8.81861328,15.1018359 8.81861328,14.8118652 C8.84444336,14.5749023 9.00234375,14.4307031 9.29231445,14.3774707 L10.1213477,14.3774707 L8.85791992,12.6008105 C8.72584961,12.495918 8.67351563,12.3510449 8.70001953,12.166416 C8.72584961,11.7192188 8.97628906,11.4692285 9.45021484,11.4162207 C9.68717773,11.4427246 9.88460938,11.548291 10.0425098,11.7320215 L11.5033691,13.8244824 L12.9642285,11.7320215 C13.095625,11.548291 13.2930566,11.4427246 13.5565234,11.4162207 C14.0037207,11.4692285 14.2537109,11.7192187 14.3067187,12.166416 C14.3067187,12.3508203 14.2537109,12.495918 14.1488184,12.6008105 L12.8853906,14.3774707 L13.7144238,14.3774707 C13.9772168,14.4304785 14.1351172,14.5749023 14.188125,14.8118652 C14.1616211,15.1018359 14.0037207,15.2462598 13.7144238,15.2462598 L12.2535645,15.2462598 L12.2535645,15.9173926 L13.7144238,15.9173926 C13.9772168,15.9704004 14.1351172,16.1148242 14.188125,16.3517871 C14.1616211,16.6417578 14.0037207,16.7861816 13.7144238,16.7861816 L12.2535645,16.7861816 L12.2535645,18.0100781 C12.2270605,18.4579492 11.9772949,18.6812109 11.5033691,18.6812109 C11.0029395,18.6812109 10.7531738,18.4579492 10.7531738,18.0100781 Z"
            id="路径"></path>
        </g>
        <rect id="矩形备份-71" opacity="0.381324405" x="0" y="0" width="24" height="24"></rect>
      </g>
    </g>
  </g>
</svg>
