<?xml version="1.0" encoding="UTF-8"?>
<svg width="156px" height="38px" viewBox="0 0 156 38" version="1.1" xmlns="http://www.w3.org/2000/svg" xmlns:xlink="http://www.w3.org/1999/xlink">
    <!-- Generator: Sketch 58 (84663) - https://sketch.com -->
    <title>button/开始月结</title>
    <desc>Created with Sketch.</desc>
    <defs>
        <rect id="path-1" x="0" y="0" width="140" height="34" rx="8"></rect>
        <filter x="-11.8%" y="-42.6%" width="123.6%" height="197.1%" filterUnits="objectBoundingBox" id="filter-2">
            <feMorphology radius="0.5" operator="dilate" in="SourceAlpha" result="shadowSpreadOuter1"></feMorphology>
            <feOffset dx="0" dy="2" in="shadowSpreadOuter1" result="shadowOffsetOuter1"></feOffset>
            <feGaussianBlur stdDeviation="5" in="shadowOffsetOuter1" result="shadowBlurOuter1"></feGaussianBlur>
            <feComposite in="shadowBlurOuter1" in2="SourceAlpha" operator="out" result="shadowBlurOuter1"></feComposite>
            <feColorMatrix values="0 0 0 0 0.903108642   0 0 0 0 0.933716309   0 0 0 0 0.986186594  0 0 0 1 0" type="matrix" in="shadowBlurOuter1"></feColorMatrix>
        </filter>
    </defs>
    <g id="组件" stroke="none" stroke-width="1" fill="none" fill-rule="evenodd">
        <g id="button/开始月结">
            <g id="button/完成月结" transform="translate(8.000000, 2.000000)">
                <g id="矩形备份-62">
                    <use fill="black" fill-opacity="1" filter="url(#filter-2)" xlink:href="#path-1"></use>
                    <use stroke="#D9E7FF" stroke-width="1" fill="#FFFFFF" fill-rule="evenodd" xlink:href="#path-1"></use>
                </g>
                <text id="开始月结" font-family="HappyZcool-2016" font-size="14" font-weight="normal" fill="#2C77E5">
                    <tspan x="51" y="23">开始月结</tspan>
                </text>
                <g id="已完成" transform="translate(20.000000, 11.000000)" fill-rule="nonzero">
                    <rect id="矩形" fill="#000000" opacity="0" x="0" y="0" width="12.9737557" height="13"></rect>
                    <path d="M13.3527259,4.20789474 L13.3527259,11.2963158 C13.3520431,12.0291053 12.7252058,12.6236842 11.9522431,12.6236842 L2.05121905,12.6236842 C1.27757351,12.6236842 0.6514191,12.0291053 0.6514191,11.2963158 L0.6514191,4.20789474 L13.3527259,4.20789474 Z M9.54390436,6.14557894 L6.67807001,9.12052631 L4.98738481,7.75894737 L4.34552531,8.55810526 L6.76547216,10.5081053 L10.2820428,6.85852631 L9.54458719,6.14557894 L9.54390436,6.14557894 Z M12.5893228,0.00136841504 C13.3622855,0.00136841504 13.9891227,0.566526314 13.9891227,1.26373684 L13.9891227,3.44089474 L0.0157050733,3.44089474 L0.0157050733,1.26373684 L0.0191192235,1.16931579 C0.0723798986,0.515894742 0.677366612,0.00136841504 1.41550502,0.00136841504 L12.5893228,0.00136841504 Z" id="形状" fill="#2C77E5"></path>
                </g>
            </g>
        </g>
    </g>
</svg>