<?xml version="1.0" encoding="UTF-8"?>
<svg width="24px" height="24px" viewBox="0 0 24 24" version="1.1" xmlns="http://www.w3.org/2000/svg" xmlns:xlink="http://www.w3.org/1999/xlink">
    <!-- Generator: Sketch 58 (84663) - https://sketch.com -->
    <title>icon/保存</title>
    <desc>Created with Sketch.</desc>
    <g id="组件" stroke="none" stroke-width="1" fill="none" fill-rule="evenodd">
        <g id="icon/保存">
            <g>
                <g transform="translate(4.000000, 4.000000)" fill="#FFFFFF" fill-rule="nonzero">
                    <rect id="矩形" opacity="0" x="0" y="0" width="15" height="15"></rect>
                    <path d="M2.27272727,2.27272727 L2.27272727,13.7272727 L13.7285455,13.7272727 L13.7272727,5.71799999 L10.282,2.27272727 L2.27272727,2.27272727 Z M13.7272727,15 L2.27272727,15 C1.57081818,15 1,14.4291818 1,13.7272727 L1,2.27272727 C1,1.57081818 1.57081818,1 2.27272727,1 L10.8095455,1 L15,5.1910909 L15,13.7272727 C15,14.4291818 14.4291818,15 13.7272727,15 Z M4.81818182,6.72727273 L8.63636364,6.72727273 L8.63636364,2.27272727 L4.81818182,2.27272727 L4.81818182,6.72727273 Z M8.95136364,8 L4.50254545,8 C3.97499999,8 3.54545454,7.57045455 3.54545454,7.04290909 L3.54545454,1 L9.90909091,1 L9.90909091,7.04290909 C9.90909091,7.57045455 9.47954546,8 8.95136364,8 L8.95136364,8 Z" id="形状"></path>
                </g>
                <rect id="矩形" x="0" y="0" width="24" height="24"></rect>
            </g>
        </g>
    </g>
</svg>