<?xml version="1.0" encoding="UTF-8"?>
<svg width="20px" height="21px" viewBox="0 0 20 21" version="1.1" xmlns="http://www.w3.org/2000/svg" xmlns:xlink="http://www.w3.org/1999/xlink">
    <!-- Generator: Sketch 58 (84663) - https://sketch.com -->
    <title>icon/规则树/模版</title>
    <desc>Created with Sketch.</desc>
    <g id="组件" stroke="none" stroke-width="1" fill="none" fill-rule="evenodd">
        <g id="icon/规则树/模版" transform="translate(0.000000, -0.000000)">
            <g>
                <g id="模版" transform="translate(3.000000, 3.000000)" fill-rule="nonzero">
                    <path d="M1.14285714,8 L6.85714286,8 C7.48833297,8 8,7.55229176 8,7 L8,1 C8,0.447708243 7.48835382,0 6.85714286,0 L1.14285714,0 C0.51166703,0 0,0.447690002 0,1 L0,7 C0,7.55229176 0.51166703,8 1.14285714,8 L1.14285714,8 Z" id="路径" fill="#63D8FB"></path>
                    <path d="M9.83333181,2 L13.1666682,2 C13.6269101,2 14,1.55229135 14,1 C14,0.447708651 13.6269253,0 13.1666682,0 L9.83333181,0 C9.37308986,0 9,0.447690411 9,1 C9,1.55230959 9.37308986,2 9.83333181,2 Z" id="路径" fill="#5299F8"></path>
                    <path d="M13.1666682,3 L9.83333181,3 C9.37308986,3 9,3.44769041 9,4 C9,4.55229135 9.37308986,5 9.83333181,5 L13.1666682,5 C13.6269101,5 14,4.55229135 14,4 C14,3.44769041 13.6269101,3 13.1666682,3 L13.1666682,3 Z" id="路径" fill="#5299F8"></path>
                    <path d="M13.1666682,6 L9.83333181,6 C9.37308986,6 9,6.44770865 9,7 C9,7.55229135 9.37308986,8 9.83333181,8 L13.1666682,8 C13.6269101,8 14,7.55229135 14,7 C14,6.44770865 13.6269101,6 13.1666682,6 L13.1666682,6 Z" id="路径" fill="#5299F8"></path>
                    <path d="M13.000018,11 L1,11 C0.447708768,11 0,11.3357898 0,11.7499487 L0,13.2500513 C0,13.66428 0.447708768,14 1,14 L13,14 C13.5522912,14 14,13.6642937 14,13.2500513 L14,11.749935 C14,11.3357761 13.5523095,11 13.000018,11 L13.000018,11 Z" id="路径" fill="#5299F8"></path>
                </g>
                <rect id="矩形备份-63" x="0" y="0" width="20" height="20"></rect>
            </g>
        </g>
    </g>
</svg>
