<?xml version="1.0" encoding="UTF-8"?>
<svg width="20px" height="21px" viewBox="0 0 20 21" version="1.1" xmlns="http://www.w3.org/2000/svg" xmlns:xlink="http://www.w3.org/1999/xlink">
    <!-- Generator: Sketch 58 (84663) - https://sketch.com -->
    <title>icon/规则树/模版组</title>
    <desc>Created with Sketch.</desc>
    <g id="组件" stroke="none" stroke-width="1" fill="none" fill-rule="evenodd">
        <g id="icon/规则树/模版组" transform="translate(0.000000, -0.000000)">
            <g>
                <g>
                    <g id="推荐模版" transform="translate(1.000000, 1.000000)" fill-rule="nonzero">
                        <rect id="矩形" fill="#000000" opacity="0" x="0" y="0" width="18" height="18"></rect>
                        <path d="M15.663672,13.7499136 C15.9878123,13.7499136 16.2681702,13.6352593 16.5026232,13.4060587 C16.7381375,13.1767502 16.8548604,12.9037133 16.8548604,12.5868761 L16.8548604,9.8482329 C16.8548604,9.51993749 16.7371122,9.24166615 16.5026232,9.01242956 C16.2681702,8.78313902 15.9878123,8.66848475 15.663672,8.66848475 L12.8270313,8.66848475 C12.5028731,8.66848475 12.2194392,8.78313904 11.9797158,9.01242958 C11.7390569,9.24166615 11.6191502,9.52098079 11.6191502,9.84823291 L11.6191502,12.5858508 C11.6191502,12.902688 11.7390569,13.1757069 11.9797158,13.4049435 C12.2204645,13.634252 12.5028731,13.7488883 12.8270313,13.7488883 L15.663672,13.7488883 L15.663672,13.7499136 L15.663672,13.7499136 Z" id="路径" fill="#5299F8"></path>
                        <path d="M15.663672,7.60241957 C15.9878123,7.60241957 16.2681702,7.4877653 16.5026232,7.25845678 C16.7381375,7.02925617 16.8548604,6.7562193 16.8548604,6.43832082 L16.8548604,3.68505353 C16.8548604,3.36819836 16.7371122,3.09517947 16.5026232,2.86588893 C16.2681702,2.63667034 15.9878123,2.52201607 15.663672,2.52201607 L12.8270313,2.52201607 C12.5028731,2.52201607 12.2194392,2.63667034 11.9797158,2.86588893 C11.7390569,3.09517947 11.6191502,3.36821636 11.6191502,3.68505353 L11.6191502,6.4393641 C11.6191502,6.75621928 11.7390569,7.02923817 11.9797158,7.25948207 C12.2204645,7.48879059 12.5028731,7.60344486 12.8270313,7.60344486 L15.663672,7.60344486 L15.663672,7.60241957 L15.663672,7.60241957 Z" id="路径" fill="#5299F8"></path>
                        <path d="M8.31146282,7.60241957 C8.6355491,7.60241957 8.91905488,7.4877653 9.15870639,7.25845678 C9.39945516,7.02925617 9.51925395,6.7562193 9.51925395,6.43832082 L9.51925395,3.68505353 C9.51925395,3.36819836 9.39945517,3.09517947 9.1587064,2.86588893 C8.91795763,2.63667034 8.63554911,2.52201607 8.31146284,2.52201607 L5.4737428,2.52201607 C5.14965653,2.52201607 4.86929862,2.63667034 4.63484558,2.86588893 C4.39934924,3.09517947 4.28262638,3.36821636 4.28262638,3.68505353 L4.28262638,6.4393641 C4.28262638,6.75621928 4.40037454,7.02923817 4.63484558,7.25948207 C4.86929862,7.48879059 5.14965653,7.60344486 5.4737428,7.60344486 L8.31146282,7.60344486 L8.31146282,7.60241957 L8.31146282,7.60241957 Z" id="路径" fill="#5299F8"></path>
                        <path d="M9.5026512,10.4057109 C9.5026512,10.1649622 9.4547137,9.93885546 9.35984602,9.7252143 C9.26499632,9.51259846 9.13683322,9.32710822 8.97424146,9.1687256 C8.81164969,9.01027104 8.62202225,8.88415854 8.40314667,8.79146738 C8.18535034,8.69866829 7.95294789,8.65184604 7.70703662,8.65184604 L2.92264044,8.65184604 C2.67663922,8.65184604 2.44432673,8.69868628 2.22647644,8.79146738 C2.00868012,8.88415854 1.81795542,9.01027104 1.65536365,9.1687256 C1.49286183,9.32710822 1.36460879,9.51258046 1.26983104,9.7262396 C1.17393806,9.93883746 1.12702586,10.1659875 1.12702586,10.4056929 L1.12702586,15.0942141 C1.12702586,15.3349629 1.17496336,15.5642714 1.26983104,15.7830751 C1.36460878,16.0019687 1.49386915,16.1905528 1.65536365,16.3489354 C1.81795542,16.50739 2.00767279,16.6334845 2.22647644,16.7261936 C2.44432673,16.8189747 2.67663923,16.8658869 2.92264044,16.8658869 L7.70703662,16.8658869 C7.95294789,16.8658869 8.18535032,16.8189747 8.40424391,16.7261936 C8.62200427,16.6334845 8.81276493,16.50739 8.97528475,16.3489354 C9.13787652,16.1905348 9.26603961,16.0019687 9.36088931,15.7830751 C9.45573901,15.5642714 9.50369449,15.3349629 9.50369449,15.0942141 L9.50369449,10.4056929 L9.5026512,10.4056929 L9.5026512,10.4057109 Z" id="路径" fill="#63D8FB"></path>
                    </g>
                    <rect id="矩形备份-62" x="0" y="0" width="20" height="20"></rect>
                </g>
            </g>
        </g>
    </g>
</svg>
