<?xml version="1.0" encoding="UTF-8"?>
<svg width="20px" height="21px" viewBox="0 0 20 21" version="1.1" xmlns="http://www.w3.org/2000/svg" xmlns:xlink="http://www.w3.org/1999/xlink">
    <!-- Generator: Sketch 58 (84663) - https://sketch.com -->
    <title>icon/规则树/数据配置</title>
    <desc>Created with Sketch.</desc>
    <g id="组件" stroke="none" stroke-width="1" fill="none" fill-rule="evenodd">
        <g id="icon/规则树/数据配置" transform="translate(0.000000, -0.000000)">
            <g>
                <g id="配置IP" transform="translate(1.000000, 1.000000)" fill-rule="nonzero">
                    <rect id="矩形" fill="#000000" opacity="0" x="0" y="0" width="18" height="18"></rect>
                    <path d="M15.890625,8.015625 L11.953125,8.015625 C11.40975,8.015625 10.96875,7.574625 10.96875,7.03125 L10.96875,6.046875 C10.96875,5.5035 11.40975,5.0625 11.953125,5.0625 L15.890625,5.0625 C16.434,5.0625 16.875,5.5035 16.875,6.046875 L16.875,7.03125 C16.875,7.574625 16.434,8.015625 15.890625,8.015625 Z" id="路径" fill="#63D8FB"></path>
                    <path d="M12.9375,2.109375 C12.9375,1.823625 13.136625,1.125 13.43475,1.125 L14.409,1.125 C14.707125,1.125 14.904,1.823625 14.90625,2.109375 L14.90625,4.078125 L12.9375,4.078125 L12.9375,2.109375 Z" id="路径" fill="#5299F8"></path>
                    <path d="M8.015625,2.109375 C8.015625,1.823625 8.21475,1.125 8.512875,1.125 L9.487125,1.125 C9.78525,1.125 9.982125,1.823625 9.984375,2.109375 L9.984375,9.984375 L8.015625,9.984375 L8.015625,2.109375 Z" id="路径" fill="#5299F8"></path>
                    <path d="M11.953125,11.953125 L11.953125,12.9375 C11.953125,13.480875 11.512125,13.921875 10.96875,13.921875 L7.03125,13.921875 C6.487875,13.921875 6.046875,13.480875 6.046875,12.9375 L6.046875,11.953125 C6.046875,11.40975 6.487875,10.96875 7.03125,10.96875 L10.96875,10.96875 C11.512125,10.96875 11.953125,11.40975 11.953125,11.953125 Z" id="路径" fill="#63D8FB"></path>
                    <path d="M6.046875,9.984375 L2.109375,9.984375 C1.566,9.984375 1.125,9.543375 1.125,9 L1.125,8.015625 C1.125,7.47225 1.566,7.03125 2.109375,7.03125 L6.046875,7.03125 C6.59025,7.03125 7.03125,7.47225 7.03125,8.015625 L7.03125,9 C7.03125,9.543375 6.59025,9.984375 6.046875,9.984375 Z" id="路径" fill="#63D8FB"></path>
                    <path d="M3.09375,2.109375 C3.09375,1.823625 3.292875,1.125 3.591,1.125 L4.56525,1.125 C4.863375,1.125 5.06025,1.823625 5.0625,2.109375 L5.0625,6.046875 L3.09375,6.046875 L3.09375,2.109375 Z" id="路径" fill="#5299F8"></path>
                    <path d="M5.0625,15.890625 C5.06025,16.176375 4.863375,16.875 4.56525,16.875 L3.591,16.875 C3.292875,16.875 3.09375,16.176375 3.09375,15.890625 L3.09375,10.96875 L5.0625,10.96875 L5.0625,15.890625 Z" id="路径" fill="#5299F8"></path>
                    <path d="M9.984375,15.890625 C9.982125,16.176375 9.78525,16.875 9.487125,16.875 L8.512875,16.875 C8.21475,16.875 8.015625,16.176375 8.015625,15.890625 L8.015625,14.90625 L9.984375,14.90625 L9.984375,15.890625 Z" id="路径" fill="#5299F8"></path>
                    <path d="M14.90625,15.890625 C14.904,16.176375 14.707125,16.875 14.409,16.875 L13.43475,16.875 C13.136625,16.875 12.9375,16.176375 12.9375,15.890625 L12.9375,9 L14.90625,9 L14.90625,15.890625 Z" id="路径" fill="#5299F8"></path>
                </g>
                <rect id="矩形" x="0" y="0" width="20" height="20"></rect>
            </g>
        </g>
    </g>
</svg>
