<?xml version="1.0" encoding="UTF-8"?>
<svg width="24px" height="24px" viewBox="0 0 24 24" version="1.1" xmlns="http://www.w3.org/2000/svg" xmlns:xlink="http://www.w3.org/1999/xlink">
    <!-- Generator: Sketch 58 (84663) - https://sketch.com -->
    <title>icon/下载</title>
    <desc>Created with Sketch.</desc>
    <g id="组件" stroke="none" stroke-width="1" fill="none" fill-rule="evenodd">
        <g id="icon/下载">
            <g>
                <rect id="矩形备份-3" x="0" y="0" width="24" height="24"></rect>
                <g id="下载备份-2" transform="translate(4.000000, 4.000000)" fill="#FFFFFF" fill-rule="nonzero">
                    <rect id="矩形" opacity="0" x="0" y="0" width="16" height="16"></rect>
                    <polygon id="路径" points="5 4.9921875 8 8 11 4.9921875 8.9974026 4.9921875 8.9974026 1 7.0025974 1 7.0025974 4.9921875"></polygon>
                    <path d="M13,3 L11.009375,3 L11.009375,4 L13,4 C13.5515625,4 14,4.4484375 14,5 L14,11 C14,11.5515625 13.5515625,12 13,12 L3,12 C2.4484375,12 2,11.5515625 2,11 L2,5 C2,4.4484375 2.4484375,4 3,4 L4.996875,4 L4.996875,3 L3,3 C1.8953125,3 1,3.8953125 1,5 L1,11 C1,12.1046875 1.8953125,13 3,13 L7,13 L7,14 L3.996875,14 L3.996875,15 L11.996875,15 L11.996875,14 L9,14 L9,13 L13,13 C14.1046875,13 15,12.1046875 15,11 L15,5 C15,3.8953125 14.1046875,3 13,3 Z" id="路径"></path>
                </g>
            </g>
        </g>
    </g>
</svg>