<?xml version="1.0" encoding="UTF-8"?>
<svg width="32px" height="32px" viewBox="0 0 32 32" version="1.1" xmlns="http://www.w3.org/2000/svg" xmlns:xlink="http://www.w3.org/1999/xlink">
    <!-- Generator: Sketch 58 (84663) - https://sketch.com -->
    <title>icon/规则树/容器</title>
    <desc>Created with Sketch.</desc>
    <defs>
        <linearGradient x1="50%" y1="0%" x2="50%" y2="100%" id="linearGradient-1">
            <stop stop-color="#2372FC" offset="0%"></stop>
            <stop stop-color="#5198EA" offset="100%"></stop>
        </linearGradient>
        <linearGradient x1="50%" y1="0%" x2="50%" y2="100%" id="linearGradient-2">
            <stop stop-color="#2372FC" offset="0%"></stop>
            <stop stop-color="#5198EA" offset="100%"></stop>
        </linearGradient>
    </defs>
    <g id="组件" stroke="none" stroke-width="1" fill="none" fill-rule="evenodd">
        <g id="icon/规则树/容器">
            <g id="icon/容器">
                <rect id="矩形备份-122" fill="url(#linearGradient-1)" x="0" y="0" width="32" height="31" rx="4"></rect>
                <path d="M0,8 L32,8 L32,28 C32,30.209139 30.209139,32 28,32 L4,32 C1.790861,32 2.705415e-16,30.209139 0,28 L0,8 L0,8 Z" id="矩形" fill="#FFFFFF"></path>
                <g id="通用备份-16" transform="translate(7.000000, 11.000000)" fill-rule="nonzero">
                    <rect id="矩形" fill="#FFFFFF" opacity="0" x="0" y="0" width="18" height="17"></rect>
                    <path d="M8.03777319,8.9372863 L6.49963758,10.4746971 C6.21640793,10.7579267 6.21640794,11.2171327 6.4996376,11.5003624 C6.78286726,11.7835921 7.24207327,11.7835921 7.52530294,11.5003624 L9.0627137,9.96222681 L9.57518395,10.4746971 C9.84718317,10.7465861 10,11.1154129 10,11.5 C10,11.8845871 9.84718317,12.2534139 9.57518395,12.5253029 L7.52602779,14.575184 C7.25413875,14.8471832 6.88531194,15 6.50072486,15 C6.11613777,15 5.74731096,14.8471832 5.47542192,14.575184 L3.42481605,12.5253029 C3.15281683,12.2534139 3,11.8845871 3,11.5 C3,11.1154129 3.15281683,10.7465861 3.42481605,10.4746971 L5.47469706,8.42481605 C5.74658611,8.15281683 6.11541292,8 6.5,8 C6.88458708,8 7.25341389,8.15281683 7.52530294,8.42481605 L8.03777319,8.9372863 L8.03777319,8.9372863 Z" id="路径" fill="url(#linearGradient-2)" opacity="0.3"></path>
                    <path d="M9.96222681,8.0627137 L11.5003624,6.52530294 C11.6835799,6.34208547 11.7551345,6.07504018 11.6880722,5.82476046 C11.62101,5.57448073 11.4255193,5.37899002 11.1752395,5.31192777 C10.9249598,5.24486552 10.6579145,5.3164201 10.4746971,5.49963758 L8.9372863,7.03777319 L8.42481605,6.52530294 C8.15281683,6.25341389 8,5.88458708 8,5.5 C8,5.11541292 8.15281683,4.74658611 8.42481605,4.47469706 L10.4746971,2.42481605 C10.7465861,2.15281683 11.1154129,2 11.5,2 C11.8845871,2 12.2534139,2.15281683 12.5253029,2.42481605 L14.575184,4.47469706 C14.8471832,4.74658611 15,5.11541292 15,5.5 C15,5.88458708 14.8471832,6.25341389 14.575184,6.52530294 L12.5253029,8.57518395 C12.2534139,8.84718317 11.8845871,9 11.5,9 C11.1154129,9 10.7465861,8.84718317 10.4746971,8.57518395 L9.96222681,8.0627137 Z" id="路径" fill="url(#linearGradient-2)"></path>
                </g>
            </g>
        </g>
    </g>
</svg>