<?xml version="1.0" encoding="UTF-8"?>
<svg width="24px" height="24px" viewBox="0 0 24 24" version="1.1" xmlns="http://www.w3.org/2000/svg" xmlns:xlink="http://www.w3.org/1999/xlink">
    <!-- Generator: Sketch 58 (84663) - https://sketch.com -->
    <title>icon/刷新</title>
    <desc>Created with Sketch.</desc>
    <g id="组件" stroke="none" stroke-width="1" fill="none" fill-rule="evenodd">
        <g id="icon/刷新">
            <g>
                <rect id="矩形备份-5" x="0" y="0" width="24" height="24"></rect>
                <g id="由BIM构件自动生成子任务备份" transform="translate(4.000000, 4.000000)" fill="#FFFFFF" fill-rule="nonzero">
                    <rect id="矩形" opacity="0" x="0" y="0" width="16" height="16"></rect>
                    <path d="M1.00110897,1 L13.9977554,1 L13.9977554,2.00283858 L1.00110897,2.00283858 L1.00110897,1 Z M1,2.00283858 L1.99982013,2.00283858 L1.99982013,14.0085157 L1,14.0085157 L1,2.00283858 Z M1,13.0088676 L5.99980352,13.0088676 L5.99980352,14.0085314 L1,14.0085314 L1,13.0088676 Z M12.9979353,2.0007116 L13.9977554,2.0007116 L13.9977554,5.00572407 L12.9979353,5.00572407 L12.9979353,2.0007116 Z M2.99965588,4.00412102 L8.99862353,4.00412102 L8.99862353,5.00372221 L2.99965588,5.00372221 L2.99965588,4.00412102 Z M2.99479829,6.00343288 L7.99513287,6.00343288 L7.99513287,7.0109164 L2.99479829,7.0109164 L2.99479829,6.00343288 Z M3.00516948,8.00857829 L5.99981914,8.00857829 L5.99981914,9.00824204 L3.00516948,9.00824204 L3.00516948,8.00857829 Z M8.21267794,11.3123216 C8.0118611,10.1199631 8.70173262,8.91510858 9.93362373,8.45923163 C10.8465539,8.12126117 11.830911,8.28291146 12.5278893,8.76565713 L11.9347634,9.67778638 L14.5945205,9.66804295 L13.6439167,7.04965554 L13.1569706,7.79830467 C12.1300823,7.16690517 10.7301748,6.96041632 9.50435958,7.4141663 C7.80599924,8.04275068 6.82846779,9.66838702 7.02144376,11.3123216 L8.21267794,11.3123216 L8.21267794,11.3123216 Z M13.784818,10.6596523 C13.9854631,11.8519952 13.2959508,13.0570218 12.0640284,13.5127423 C11.2242589,13.8235 10.298802,13.7063911 9.58723538,13.2874391 C9.72271685,13.0786356 10.1231791,12.4629226 10.1231791,12.4629226 L7.26293316,12.3035869 L8.47326969,15 L8.98073948,14.2198372 C10.0074716,14.8512367 11.2671494,15.011714 12.4929646,14.557964 C14.1909969,13.9292233 15.1688876,12.3037433 14.9758804,10.6599964 L13.7848337,10.6599964 L13.7848337,10.6596523 L13.784818,10.6596523 Z" id="形状"></path>
                </g>
            </g>
        </g>
    </g>
</svg>