<?xml version="1.0" encoding="UTF-8"?>
<svg width="24px" height="24px" viewBox="0 0 24 24" version="1.1" xmlns="http://www.w3.org/2000/svg" xmlns:xlink="http://www.w3.org/1999/xlink">
    <!-- Generator: Sketch 58 (84663) - https://sketch.com -->
    <title>icon/导入</title>
    <desc>Created with Sketch.</desc>
    <g id="组件" stroke="none" stroke-width="1" fill="none" fill-rule="evenodd">
        <g id="icon/导入">
            <g>
                <g id="导入备份" transform="translate(3.000000, 3.000000)" fill="#FFFFFF" fill-rule="nonzero">
                    <rect id="矩形" opacity="0" x="0" y="0" width="17" height="18"></rect>
                    <path d="M13.6049805,1.88085938 L3.30869141,1.88085938 C2.33583984,1.88085938 1.54394531,2.71933594 1.54394531,3.74941406 L1.54394531,10.0072266 C1.54394531,10.3166016 1.78134766,10.5679688 2.07353516,10.5679688 C2.36572266,10.5679688 2.603125,10.3166016 2.603125,10.0072266 L2.603125,3.74941406 C2.603125,3.33808594 2.92021484,3.00234375 3.30869141,3.00234375 L13.6049805,3.00234375 C13.993457,3.00234375 14.3105469,3.33808594 14.3105469,3.74941406 L14.3105469,14.0238281 C14.3105469,14.4351562 13.993457,14.7708984 13.6049805,14.7708984 L6.74853516,14.7708984 C6.45634766,14.7708984 6.21894531,15.0222656 6.21894531,15.3316406 C6.21894531,15.6410156 6.45634766,15.8923828 6.74853516,15.8923828 L13.6049805,15.8923828 C14.577832,15.8923828 15.3697266,15.0539062 15.3697266,14.0238281 L15.3697266,3.74941406 C15.3697266,2.71933594 14.577832,1.88085938 13.6049805,1.88085938 Z M8.81875,11.8107422 L8.81875,12.8900391 C8.81708984,13.2292969 9.18896484,13.4173828 9.43798828,13.2046875 L13.2414063,9.94746094 C13.4306641,9.78574219 13.4290039,9.48164062 13.2397461,9.31992187 L9.45458984,5.71464844 C9.20556641,5.50371094 8.81875,5.69003906 8.81708984,6.02753906 L8.81708984,7.11914063 C8.81708984,7.32480469 8.68427734,7.47246094 8.49501953,7.51816406 C3.44482422,8.73632813 2.16816406,15.0046875 2.21132812,15.4353516 C3.85488281,13.7882813 5.51503906,11.2412109 8.44853516,11.4064453 C8.65771484,11.41875 8.82041016,11.5910156 8.81875,11.8107422 L8.81875,11.8107422 Z" id="形状"></path>
                </g>
                <rect id="矩形备份" x="0" y="0" width="24" height="24"></rect>
            </g>
        </g>
    </g>
</svg>