<?xml version="1.0" encoding="UTF-8"?>
<svg width="24px" height="24px" viewBox="0 0 24 24" version="1.1" xmlns="http://www.w3.org/2000/svg"
     xmlns:xlink="http://www.w3.org/1999/xlink">
  <!-- Generator: Sketch 58 (84663) - https://sketch.com -->
  <title>icon/系统工具</title>
  <desc>Created with Sketch.</desc>
  <g id="组件" stroke="none" stroke-width="1" fill="none" fill-rule="evenodd">
    <g id="icon/菜单栏" transform="translate(0.000000, -48.000000)">
      <g id="icon/系统工具" transform="translate(0.000000, 48.000000)">
        <g>
          <g id="测试工具" transform="translate(1.000000, 0.000000)" fill="#FFFFFF" fill-rule="nonzero">
            <rect id="矩形" opacity="0" x="0" y="0" width="23" height="23"></rect>
            <path
              d="M20.0643555,17.96875 L2.87949219,17.96875 L2.87949219,2.92441406 L20.1429688,2.92441406 L20.0643555,17.96875 Z M4.22714844,16.6210938 L18.7256836,16.6210938 L18.7908203,4.27207031 L4.22714844,4.27207031 L4.22714844,16.6210938 Z M4.92119141,18.7481445 L18.0833008,18.7481445 L18.0833008,20.0958008 L4.92119141,20.0958008 L4.92119141,18.7481445 Z"
              id="形状"></path>
            <path
              d="M8.29707031,13.6270508 L5.0671875,10.4016602 L8.29707031,7.16953125 L9.24941406,8.121875 L6.97412109,10.3994141 L9.24941406,12.6724609 L8.29707031,13.6270508 Z M14.7613281,13.6270508 L13.8112305,12.6724609 L16.0865234,10.3994141 L13.8089844,8.121875 L14.7635742,7.16953125 L17.9912109,10.4016602 L14.7613281,13.6270508 Z M11.1114258,13.7595703 L9.82890625,13.3462891 C10.6644531,10.756543 11.1226563,9.3078125 11.8301758,7.04150391 L13.1171875,7.44355469 C12.4074219,9.71435547 11.9492187,11.165332 11.1114258,13.7595703 L11.1114258,13.7595703 Z"
              id="形状"></path>
          </g>
          <rect id="矩形" x="0" y="0" width="24" height="24"></rect>
        </g>
      </g>
    </g>
  </g>
</svg>
