<?xml version="1.0" encoding="UTF-8"?>
<svg width="24px" height="24px" viewBox="0 0 24 24" version="1.1" xmlns="http://www.w3.org/2000/svg"
     xmlns:xlink="http://www.w3.org/1999/xlink">
  <!-- Generator: Sketch 58 (84663) - https://sketch.com -->
  <title>icon/系统管理</title>
  <desc>Created with Sketch.</desc>
  <g id="组件" stroke="none" stroke-width="1" fill="none" fill-rule="evenodd" opacity="0.9">
    <g id="icon/菜单栏" transform="translate(0.000000, -144.000000)">
      <g id="icon/系统管理" transform="translate(0.000000, 144.000000)">
        <g>
          <g id="系统设置" transform="translate(2.000000, 2.000000)" fill="#FFFFFF" fill-rule="nonzero">
            <rect id="矩形" opacity="0" x="0" y="0" width="21" height="21"></rect>
            <path
              d="M19.03125,1.96875 L19.03125,7.54425 L17.1294375,7.54425 L17.13075,3.80625 L3.871875,3.80625 L3.871875,13.222125 L12.193125,13.222125 L12.193125,15.070125 L11.426625,15.070125 L11.426625,17.1819375 L15.101625,17.180625 L15.101625,19.03125 L5.90625,19.03125 L5.90625,17.180625 L9.5904375,17.180625 L9.5904375,15.070125 L1.96875,15.070125 L1.96875,1.96875 L19.03125,1.96875 Z M17.6596875,8.864625 L17.82375,9.652125 C18.199125,9.767625 18.5390625,9.954 18.8278125,10.1955 L19.632375,9.935625 L20.34375,11.0945625 L19.7045625,11.6169375 C19.7856532,11.9777499 19.7856532,12.3520626 19.7045625,12.712875 L20.34375,13.237875 L19.632375,14.3955 L18.8278125,14.135625 C18.5334434,14.3819471 18.1923828,14.5663163 17.8250625,14.6776875 L17.6596875,15.4651875 L16.235625,15.4651875 L16.07025,14.6724375 C15.7076579,14.5598843 15.3712007,14.3760377 15.080625,14.1316875 L14.2629375,14.3941875 L13.5515625,13.2365625 L14.2051875,12.7010625 C14.1276382,12.3478313 14.1276382,11.9819812 14.2051875,11.62875 L13.5515625,11.0945625 L14.2629375,9.935625 L15.080625,10.20075 C15.364125,9.9605625 15.700125,9.7741875 16.0715625,9.6586875 L16.235625,8.864625 L17.658375,8.864625 L17.6596875,8.864625 Z M16.9575,10.8465 C16.1818125,10.8465 15.553125,11.437125 15.553125,12.1655625 C15.553125,12.8953125 16.1818125,13.4859375 16.9575,13.4859375 C17.731875,13.4859375 18.361875,12.8953125 18.361875,12.1655625 C18.361875,11.4358125 17.731875,10.8451875 16.9575,10.8451875 L16.9575,10.8465 Z"
              id="形状"></path>
          </g>
          <rect id="矩形备份-62" opacity="0.381324405" x="0" y="0" width="24" height="24"></rect>
        </g>
      </g>
    </g>
  </g>
</svg>
