<?xml version="1.0" encoding="UTF-8"?>
<svg width="24px" height="24px" viewBox="0 0 24 24" version="1.1" xmlns="http://www.w3.org/2000/svg"
     xmlns:xlink="http://www.w3.org/1999/xlink">
  <!-- Generator: Sketch 58 (84663) - https://sketch.com -->
  <title>icon/系统监控</title>
  <desc>Created with Sketch.</desc>
  <g id="组件" stroke="none" stroke-width="1" fill="none" fill-rule="evenodd">
    <g id="icon/菜单栏">
      <g id="icon/系统监控">
        <g>
          <g transform="translate(2.000000, 1.000000)" fill="#FFFFFF" fill-rule="nonzero">
            <rect id="矩形" opacity="0" x="0" y="0" width="20" height="20"></rect>
            <path
              d="M17.6772727,2.06181818 L2.37909092,2.06181818 C1.58363637,2.06181818 0.937272734,2.70818182 0.937272734,3.50363637 L0.937272734,13.2427273 C0.937272734,14.0381818 1.58363637,14.6854545 2.37909092,14.6854546 L4.20090908,14.6854546 C4.29632249,14.6851163 4.39055694,14.6643475 4.47727273,14.6245454 C4.49727273,14.6154545 4.51272729,14.5990909 4.53181818,14.5881818 C4.5964477,14.5524236 4.65504398,14.5067124 4.70545455,14.4527273 C4.71181818,14.4445454 4.72181818,14.4427273 4.72727273,14.4345454 L8.06363637,10.3454546 L9.59909092,11.6690909 C9.87653408,11.9079682 10.2931085,11.8850927 10.5427273,11.6172727 L13.4854546,8.46363637 C13.8290909,8.66818182 14.2245455,8.79272729 14.6518182,8.79272727 C15.9197968,8.79172541 16.9475872,7.76434175 16.9490909,6.49636363 C16.9475881,5.22823795 15.9199439,4.20059373 14.6518182,4.19909092 C13.3840475,4.20109441 12.3569563,5.2285923 12.3554546,6.49636363 C12.3554546,6.83727271 12.4345455,7.15818182 12.5681818,7.44818182 L9.99272727,10.2072727 L8.42272727,8.85454545 C8.28332191,8.73433932 8.1012358,8.67560684 7.91786637,8.69170089 C7.73449694,8.70779494 7.56542562,8.79734797 7.44909092,8.94 L3.87636363,13.3209091 L2.37909092,13.3209091 C2.35819733,13.3209105 2.33817246,13.3125488 2.3234841,13.2976897 C2.30879575,13.2828306 2.30066614,13.2627104 2.30090908,13.2418182 L2.30090908,3.50363637 C2.30090908,3.4609091 2.33636363,3.42545455 2.37909092,3.42545455 L17.6772727,3.42545455 C17.72,3.42545455 17.7554546,3.46181818 17.7554546,3.50363637 L17.7554546,13.2427273 C17.7556975,13.2636194 17.7475679,13.2837396 17.7328795,13.2985988 C17.7181912,13.3134579 17.6981663,13.3218196 17.6772727,13.3218182 L9.75909092,13.3218182 C9.38253313,13.3218182 9.07727273,13.6270786 9.07727273,14.0036364 C9.07727273,14.0181818 9.08454547,14.03 9.08545455,14.0445454 L9.08454545,14.0509091 L9.08454545,16.9327273 L5.70454545,16.9327273 C5.32798766,16.9327273 5.02272727,17.2379877 5.02272727,17.6145454 C5.02272727,17.9911032 5.32798766,18.2963636 5.70454545,18.2963636 L14.3518182,18.2963636 C14.728376,18.2963636 15.0336364,17.9911032 15.0336364,17.6145454 C15.0336364,17.2379877 14.728376,16.9327273 14.3518182,16.9327273 L10.4481818,16.9327273 L10.4481818,14.6854546 L17.6772727,14.6854546 C18.4718182,14.6854546 19.1190909,14.0381818 19.1190909,13.2427273 L19.1190909,3.50363637 C19.1190909,2.70818182 18.4718182,2.06181818 17.6772727,2.06181818 Z M14.6518182,5.56272549 C15.0300538,5.56199157 15.3714382,5.78931764 15.5166078,6.13858618 C15.6617774,6.48785472 15.5821043,6.89018868 15.3147812,7.15777241 C15.047458,7.42535614 14.6452018,7.50542113 14.295792,7.36059183 C13.9463822,7.21576252 13.7187237,6.8745998 13.7190905,6.49636363 C13.7190905,5.98181818 14.1372727,5.56272549 14.6518182,5.56272549 Z"
              id="形状"></path>
          </g>
          <rect id="矩形" x="0" y="0" width="24" height="24"></rect>
        </g>
      </g>
    </g>
  </g>
</svg>
