<?xml version="1.0" encoding="UTF-8"?>
<svg width="24px" height="24px" viewBox="0 0 24 24" version="1.1" xmlns="http://www.w3.org/2000/svg"
     xmlns:xlink="http://www.w3.org/1999/xlink">
  <!-- Generator: Sketch 58 (84663) - https://sketch.com -->
  <title>icon/业财核对报表</title>
  <desc>Created with Sketch.</desc>
  <g id="组件" stroke="none" stroke-width="1" fill="none" fill-rule="evenodd">
    <g id="icon/菜单栏图标" transform="translate(0.000000, -351.000000)">
      <g id="icon/业财核对报表" transform="translate(0.000000, 351.000000)">
        <g id="业务" transform="translate(1.000000, 1.000000)" fill="#FFFFFF" fill-rule="nonzero">
          <rect id="矩形" opacity="0" x="0" y="0" width="22" height="22"></rect>
          <path
            d="M8.51880478,8.5394899 L15.9624231,8.5394899 L15.9624231,9.76977739 L8.51880478,9.76977739 L8.51880478,8.5394899 Z M8.51880478,4.84871395 L15.9624231,4.84871395 L15.9624231,6.07895818 L8.51880478,6.07895818 L8.51880478,4.84871395 L8.51880478,4.84871395 Z M7.27820172,1.15791636 L17.2030044,1.15791636 L17.2030044,2.38818222 L7.27820172,2.38818222 L7.27820172,1.15789474 L7.27820172,1.15791636 Z M12.2406358,14.6908192 L12.2406358,12.2302875 L13.4812388,12.2302875 L13.4812388,15.9210851 L8.51880478,15.9210851 L8.51880478,12.2302875 L9.75942965,12.2302875 L9.75942965,14.6908192 L12.240614,14.6908192 L12.2406358,14.6908192 Z M7.27820172,12.2302875 L8.51882659,12.2302875 L8.51882659,13.4605533 L2.31578947,13.4605533 L2.31578947,12.2302659 L3.55639254,12.2302659 L3.55639254,3.61846971 L4.7969956,3.61846971 L4.7969956,12.2303091 L6.03757685,12.2303091 L6.03757685,4.84871395 L4.7969956,4.84871395 L4.7969956,3.61842646 L6.03757685,3.61842646 L6.03757685,1.15793799 L7.27820172,1.15793799 L7.27820172,12.2303091 L7.27820172,12.2302875 Z M17.2030044,12.2302875 L17.2030044,1.15791636 L18.4436293,1.15791636 L18.4436293,12.2302875 L19.6842105,12.2302875 L19.6842105,13.4605533 L13.481217,13.4605533 L13.481217,12.2302659 L17.2030044,12.2302659 L17.2030044,12.2302875 Z M18.4436293,19.611861 L18.4436293,13.4605533 L19.6842105,13.4605533 L19.6842105,20.8421053 L2.31581128,20.8421053 L2.31581128,13.4605533 L3.55641434,13.4605533 L3.55641434,19.611861 L18.4436075,19.611861 L18.4436293,19.611861 Z"
            id="形状"></path>
        </g>
        <rect id="矩形备份-68" opacity="0.381324405" x="0" y="0" width="24" height="24"></rect>
      </g>
    </g>
  </g>
</svg>
