<?xml version="1.0" encoding="UTF-8"?>
<svg width="24px" height="24px" viewBox="0 0 24 24" version="1.1" xmlns="http://www.w3.org/2000/svg"
     xmlns:xlink="http://www.w3.org/1999/xlink">
  <!-- Generator: Sketch 58 (84663) - https://sketch.com -->
  <title>icon/月结看板</title>
  <desc>Created with Sketch.</desc>
  <g id="组件" stroke="none" stroke-width="1" fill="none" fill-rule="evenodd">
    <g id="icon/菜单栏图标">
      <g id="icon/月结看板">
        <g id="icon/系统管理备份" opacity="0.381324405">
          <rect id="矩形备份-62" x="0" y="0" width="24" height="24"></rect>
        </g>
        <g id="本月" transform="translate(2.000000, 1.000000)" fill="#FFFFFF" fill-rule="nonzero">
          <rect id="矩形" opacity="0" x="0" y="0" width="19" height="19"></rect>
          <path
            d="M14.0691689,3.8 L14.5276139,3.8 C14.924933,3.8 15.2,3.52195122 15.2,3.21300813 L15.2,0.617886179 C15.169437,0.247154472 14.89437,0 14.5276139,0 L14.0691689,0 C13.6718499,0 13.3967828,0.27804878 13.3967828,0.648780488 L13.3967828,3.21300813 C13.3967828,3.52195122 13.6718499,3.8 14.0691689,3.8 Z M4.47238606,3.8 L4.9308311,3.8 C5.32815013,3.8 5.60321716,3.52195122 5.60321716,3.21300813 L5.60321716,0.617886179 C5.57265416,0.247154472 5.29758713,0 4.9308311,0 L4.47238606,0 C4.07506702,0 3.8,0.27804878 3.8,0.648780488 L3.8,3.21300813 C3.8,3.52195122 4.07506702,3.8 4.47238606,3.8 Z"
            id="形状"></path>
          <path
            d="M17.7354443,2.85 L16.4419423,2.85 L16.4419423,3.92269373 C16.4419423,4.72721402 15.7801506,5.35295203 14.9679517,5.35295203 L14.51673,5.35295203 C13.7045311,5.35295203 13.0427394,4.72721402 13.0427394,3.92269373 L13.0427394,2.85 L6.99636971,2.85 L6.99636971,3.92269373 C6.99636971,4.72721402 6.334578,5.35295203 5.52237908,5.35295203 L5.07115746,5.35295203 C4.25895855,5.35295203 3.59716684,4.72721402 3.59716684,3.92269373 L3.59716684,2.85 L2.24350198,2.85 C1.52154739,2.85 0.95,3.38634686 0.95,4.10147601 L0.95,17.748524 C0.95,18.4338561 1.52154739,19 2.24350198,19 L17.6752814,19 C18.397236,19 18.9687834,18.4636531 18.9988648,17.748524 L18.9988648,4.10147601 C19.0289462,3.38634686 18.4573989,2.85 17.7354443,2.85 Z M2.24350198,17.748524 L2.24350198,6.99178967 L17.6752814,6.99178967 C17.6752814,6.99178967 17.6752814,17.748524 17.7053628,17.748524 L2.24350198,17.748524 Z"
            id="形状"></path>
          <path
            d="M6.88360656,8.55 L6.88360656,11.6846304 C6.88360656,12.6605058 6.79016393,13.3702335 6.69672131,13.8433852 C6.54098361,14.286965 6.19836066,14.7896887 5.7,15.2628405 C6.10491803,15.5289883 6.44754098,15.8247082 6.85245902,16.15 C7.25737705,15.7951362 7.53770492,15.4698444 7.69344262,15.1445525 C7.88032787,14.7601167 8.00491803,14.286965 8.1295082,13.7250973 L12.0540984,13.7250973 L12.0540984,14.316537 C12.0540984,14.7009728 11.8672131,14.8784047 11.3688525,14.8784047 C10.9327869,14.8784047 10.4655738,14.8784047 9.87377049,14.8488327 C9.99836066,15.2332685 10.1229508,15.6768482 10.1852459,16.090856 C11.0885246,16.090856 11.7114754,16.061284 12.1163934,16.061284 C12.5213115,16.061284 12.8016393,15.9134241 12.9885246,15.6768482 C13.1754098,15.4107004 13.3,15.0558366 13.3,14.5826848 L13.3,8.55 L6.88360656,8.55 Z M11.9606557,12.6013619 L8.09836066,12.6013619 C8.1295082,12.1577821 8.1295082,11.8029183 8.09836066,11.6550584 L11.9606557,11.6550584 L11.9606557,12.6013619 Z M11.9606557,10.5904669 L8.09836066,10.5904669 L8.09836066,9.64416342 L11.9606557,9.64416342 L11.9606557,10.5904669 Z"
            id="形状"></path>
        </g>
      </g>
    </g>
  </g>
</svg>
